G04 #@! TF.GenerationSoftware,KiCad,Pcbnew,9.0.6*
G04 #@! TF.CreationDate,2025-11-17T13:48:36+09:00*
G04 #@! TF.ProjectId,cap-locator,6361702d-6c6f-4636-9174-6f722e6b6963,rev?*
G04 #@! TF.SameCoordinates,PX7bfa480PY7bfa480*
G04 #@! TF.FileFunction,Legend,Top*
G04 #@! TF.FilePolarity,Positive*
%FSLAX46Y46*%
G04 Gerber Fmt 4.6, Leading zero omitted, Abs format (unit mm)*
G04 Created by KiCad (PCBNEW 9.0.6) date 2025-11-17 13:48:36*
%MOMM*%
%LPD*%
G01*
G04 APERTURE LIST*
%ADD10C,0.100000*%
%ADD11C,0.150000*%
%ADD12C,0.120000*%
G04 APERTURE END LIST*
D10*
X10057455Y54099200D02*
X9990789Y54065867D01*
X9990789Y54065867D02*
X9857455Y54065867D01*
X9857455Y54065867D02*
X9790789Y54099200D01*
X9790789Y54099200D02*
X9757455Y54132534D01*
X9757455Y54132534D02*
X9724122Y54199200D01*
X9724122Y54199200D02*
X9724122Y54399200D01*
X9724122Y54399200D02*
X9757455Y54465867D01*
X9757455Y54465867D02*
X9790789Y54499200D01*
X9790789Y54499200D02*
X9857455Y54532534D01*
X9857455Y54532534D02*
X9990789Y54532534D01*
X9990789Y54532534D02*
X10057455Y54499200D01*
X10657455Y54065867D02*
X10657455Y54432534D01*
X10657455Y54432534D02*
X10624122Y54499200D01*
X10624122Y54499200D02*
X10557455Y54532534D01*
X10557455Y54532534D02*
X10424122Y54532534D01*
X10424122Y54532534D02*
X10357455Y54499200D01*
X10657455Y54099200D02*
X10590789Y54065867D01*
X10590789Y54065867D02*
X10424122Y54065867D01*
X10424122Y54065867D02*
X10357455Y54099200D01*
X10357455Y54099200D02*
X10324122Y54165867D01*
X10324122Y54165867D02*
X10324122Y54232534D01*
X10324122Y54232534D02*
X10357455Y54299200D01*
X10357455Y54299200D02*
X10424122Y54332534D01*
X10424122Y54332534D02*
X10590789Y54332534D01*
X10590789Y54332534D02*
X10657455Y54365867D01*
X10990788Y54532534D02*
X10990788Y53832534D01*
X10990788Y54499200D02*
X11057455Y54532534D01*
X11057455Y54532534D02*
X11190788Y54532534D01*
X11190788Y54532534D02*
X11257455Y54499200D01*
X11257455Y54499200D02*
X11290788Y54465867D01*
X11290788Y54465867D02*
X11324122Y54399200D01*
X11324122Y54399200D02*
X11324122Y54199200D01*
X11324122Y54199200D02*
X11290788Y54132534D01*
X11290788Y54132534D02*
X11257455Y54099200D01*
X11257455Y54099200D02*
X11190788Y54065867D01*
X11190788Y54065867D02*
X11057455Y54065867D01*
X11057455Y54065867D02*
X10990788Y54099200D01*
X11624121Y54332534D02*
X12157455Y54332534D01*
X12590788Y54065867D02*
X12524122Y54099200D01*
X12524122Y54099200D02*
X12490788Y54165867D01*
X12490788Y54165867D02*
X12490788Y54765867D01*
X12957455Y54065867D02*
X12890789Y54099200D01*
X12890789Y54099200D02*
X12857455Y54132534D01*
X12857455Y54132534D02*
X12824122Y54199200D01*
X12824122Y54199200D02*
X12824122Y54399200D01*
X12824122Y54399200D02*
X12857455Y54465867D01*
X12857455Y54465867D02*
X12890789Y54499200D01*
X12890789Y54499200D02*
X12957455Y54532534D01*
X12957455Y54532534D02*
X13057455Y54532534D01*
X13057455Y54532534D02*
X13124122Y54499200D01*
X13124122Y54499200D02*
X13157455Y54465867D01*
X13157455Y54465867D02*
X13190789Y54399200D01*
X13190789Y54399200D02*
X13190789Y54199200D01*
X13190789Y54199200D02*
X13157455Y54132534D01*
X13157455Y54132534D02*
X13124122Y54099200D01*
X13124122Y54099200D02*
X13057455Y54065867D01*
X13057455Y54065867D02*
X12957455Y54065867D01*
X13790788Y54099200D02*
X13724122Y54065867D01*
X13724122Y54065867D02*
X13590788Y54065867D01*
X13590788Y54065867D02*
X13524122Y54099200D01*
X13524122Y54099200D02*
X13490788Y54132534D01*
X13490788Y54132534D02*
X13457455Y54199200D01*
X13457455Y54199200D02*
X13457455Y54399200D01*
X13457455Y54399200D02*
X13490788Y54465867D01*
X13490788Y54465867D02*
X13524122Y54499200D01*
X13524122Y54499200D02*
X13590788Y54532534D01*
X13590788Y54532534D02*
X13724122Y54532534D01*
X13724122Y54532534D02*
X13790788Y54499200D01*
X14390788Y54065867D02*
X14390788Y54432534D01*
X14390788Y54432534D02*
X14357455Y54499200D01*
X14357455Y54499200D02*
X14290788Y54532534D01*
X14290788Y54532534D02*
X14157455Y54532534D01*
X14157455Y54532534D02*
X14090788Y54499200D01*
X14390788Y54099200D02*
X14324122Y54065867D01*
X14324122Y54065867D02*
X14157455Y54065867D01*
X14157455Y54065867D02*
X14090788Y54099200D01*
X14090788Y54099200D02*
X14057455Y54165867D01*
X14057455Y54165867D02*
X14057455Y54232534D01*
X14057455Y54232534D02*
X14090788Y54299200D01*
X14090788Y54299200D02*
X14157455Y54332534D01*
X14157455Y54332534D02*
X14324122Y54332534D01*
X14324122Y54332534D02*
X14390788Y54365867D01*
X14624121Y54532534D02*
X14890788Y54532534D01*
X14724121Y54765867D02*
X14724121Y54165867D01*
X14724121Y54165867D02*
X14757455Y54099200D01*
X14757455Y54099200D02*
X14824121Y54065867D01*
X14824121Y54065867D02*
X14890788Y54065867D01*
X15224121Y54065867D02*
X15157455Y54099200D01*
X15157455Y54099200D02*
X15124121Y54132534D01*
X15124121Y54132534D02*
X15090788Y54199200D01*
X15090788Y54199200D02*
X15090788Y54399200D01*
X15090788Y54399200D02*
X15124121Y54465867D01*
X15124121Y54465867D02*
X15157455Y54499200D01*
X15157455Y54499200D02*
X15224121Y54532534D01*
X15224121Y54532534D02*
X15324121Y54532534D01*
X15324121Y54532534D02*
X15390788Y54499200D01*
X15390788Y54499200D02*
X15424121Y54465867D01*
X15424121Y54465867D02*
X15457455Y54399200D01*
X15457455Y54399200D02*
X15457455Y54199200D01*
X15457455Y54199200D02*
X15424121Y54132534D01*
X15424121Y54132534D02*
X15390788Y54099200D01*
X15390788Y54099200D02*
X15324121Y54065867D01*
X15324121Y54065867D02*
X15224121Y54065867D01*
X15757454Y54065867D02*
X15757454Y54532534D01*
X15757454Y54399200D02*
X15790788Y54465867D01*
X15790788Y54465867D02*
X15824121Y54499200D01*
X15824121Y54499200D02*
X15890788Y54532534D01*
X15890788Y54532534D02*
X15957454Y54532534D01*
X16190787Y54132534D02*
X16224121Y54099200D01*
X16224121Y54099200D02*
X16190787Y54065867D01*
X16190787Y54065867D02*
X16157454Y54099200D01*
X16157454Y54099200D02*
X16190787Y54132534D01*
X16190787Y54132534D02*
X16190787Y54065867D01*
X16890787Y54065867D02*
X16490787Y54065867D01*
X16690787Y54065867D02*
X16690787Y54765867D01*
X16690787Y54765867D02*
X16624120Y54665867D01*
X16624120Y54665867D02*
X16557454Y54599200D01*
X16557454Y54599200D02*
X16490787Y54565867D01*
X17190787Y54132534D02*
X17224121Y54099200D01*
X17224121Y54099200D02*
X17190787Y54065867D01*
X17190787Y54065867D02*
X17157454Y54099200D01*
X17157454Y54099200D02*
X17190787Y54132534D01*
X17190787Y54132534D02*
X17190787Y54065867D01*
X17657454Y54765867D02*
X17724120Y54765867D01*
X17724120Y54765867D02*
X17790787Y54732534D01*
X17790787Y54732534D02*
X17824120Y54699200D01*
X17824120Y54699200D02*
X17857454Y54632534D01*
X17857454Y54632534D02*
X17890787Y54499200D01*
X17890787Y54499200D02*
X17890787Y54332534D01*
X17890787Y54332534D02*
X17857454Y54199200D01*
X17857454Y54199200D02*
X17824120Y54132534D01*
X17824120Y54132534D02*
X17790787Y54099200D01*
X17790787Y54099200D02*
X17724120Y54065867D01*
X17724120Y54065867D02*
X17657454Y54065867D01*
X17657454Y54065867D02*
X17590787Y54099200D01*
X17590787Y54099200D02*
X17557454Y54132534D01*
X17557454Y54132534D02*
X17524120Y54199200D01*
X17524120Y54199200D02*
X17490787Y54332534D01*
X17490787Y54332534D02*
X17490787Y54499200D01*
X17490787Y54499200D02*
X17524120Y54632534D01*
X17524120Y54632534D02*
X17557454Y54699200D01*
X17557454Y54699200D02*
X17590787Y54732534D01*
X17590787Y54732534D02*
X17657454Y54765867D01*
X18190787Y54132534D02*
X18224121Y54099200D01*
X18224121Y54099200D02*
X18190787Y54065867D01*
X18190787Y54065867D02*
X18157454Y54099200D01*
X18157454Y54099200D02*
X18190787Y54132534D01*
X18190787Y54132534D02*
X18190787Y54065867D01*
X18657454Y54765867D02*
X18724120Y54765867D01*
X18724120Y54765867D02*
X18790787Y54732534D01*
X18790787Y54732534D02*
X18824120Y54699200D01*
X18824120Y54699200D02*
X18857454Y54632534D01*
X18857454Y54632534D02*
X18890787Y54499200D01*
X18890787Y54499200D02*
X18890787Y54332534D01*
X18890787Y54332534D02*
X18857454Y54199200D01*
X18857454Y54199200D02*
X18824120Y54132534D01*
X18824120Y54132534D02*
X18790787Y54099200D01*
X18790787Y54099200D02*
X18724120Y54065867D01*
X18724120Y54065867D02*
X18657454Y54065867D01*
X18657454Y54065867D02*
X18590787Y54099200D01*
X18590787Y54099200D02*
X18557454Y54132534D01*
X18557454Y54132534D02*
X18524120Y54199200D01*
X18524120Y54199200D02*
X18490787Y54332534D01*
X18490787Y54332534D02*
X18490787Y54499200D01*
X18490787Y54499200D02*
X18524120Y54632534D01*
X18524120Y54632534D02*
X18557454Y54699200D01*
X18557454Y54699200D02*
X18590787Y54732534D01*
X18590787Y54732534D02*
X18657454Y54765867D01*
X19690787Y54699200D02*
X19724120Y54732534D01*
X19724120Y54732534D02*
X19790787Y54765867D01*
X19790787Y54765867D02*
X19957454Y54765867D01*
X19957454Y54765867D02*
X20024120Y54732534D01*
X20024120Y54732534D02*
X20057454Y54699200D01*
X20057454Y54699200D02*
X20090787Y54632534D01*
X20090787Y54632534D02*
X20090787Y54565867D01*
X20090787Y54565867D02*
X20057454Y54465867D01*
X20057454Y54465867D02*
X19657454Y54065867D01*
X19657454Y54065867D02*
X20090787Y54065867D01*
X20524121Y54765867D02*
X20590787Y54765867D01*
X20590787Y54765867D02*
X20657454Y54732534D01*
X20657454Y54732534D02*
X20690787Y54699200D01*
X20690787Y54699200D02*
X20724121Y54632534D01*
X20724121Y54632534D02*
X20757454Y54499200D01*
X20757454Y54499200D02*
X20757454Y54332534D01*
X20757454Y54332534D02*
X20724121Y54199200D01*
X20724121Y54199200D02*
X20690787Y54132534D01*
X20690787Y54132534D02*
X20657454Y54099200D01*
X20657454Y54099200D02*
X20590787Y54065867D01*
X20590787Y54065867D02*
X20524121Y54065867D01*
X20524121Y54065867D02*
X20457454Y54099200D01*
X20457454Y54099200D02*
X20424121Y54132534D01*
X20424121Y54132534D02*
X20390787Y54199200D01*
X20390787Y54199200D02*
X20357454Y54332534D01*
X20357454Y54332534D02*
X20357454Y54499200D01*
X20357454Y54499200D02*
X20390787Y54632534D01*
X20390787Y54632534D02*
X20424121Y54699200D01*
X20424121Y54699200D02*
X20457454Y54732534D01*
X20457454Y54732534D02*
X20524121Y54765867D01*
X21024121Y54699200D02*
X21057454Y54732534D01*
X21057454Y54732534D02*
X21124121Y54765867D01*
X21124121Y54765867D02*
X21290788Y54765867D01*
X21290788Y54765867D02*
X21357454Y54732534D01*
X21357454Y54732534D02*
X21390788Y54699200D01*
X21390788Y54699200D02*
X21424121Y54632534D01*
X21424121Y54632534D02*
X21424121Y54565867D01*
X21424121Y54565867D02*
X21390788Y54465867D01*
X21390788Y54465867D02*
X20990788Y54065867D01*
X20990788Y54065867D02*
X21424121Y54065867D01*
X22057455Y54765867D02*
X21724121Y54765867D01*
X21724121Y54765867D02*
X21690788Y54432534D01*
X21690788Y54432534D02*
X21724121Y54465867D01*
X21724121Y54465867D02*
X21790788Y54499200D01*
X21790788Y54499200D02*
X21957455Y54499200D01*
X21957455Y54499200D02*
X22024121Y54465867D01*
X22024121Y54465867D02*
X22057455Y54432534D01*
X22057455Y54432534D02*
X22090788Y54365867D01*
X22090788Y54365867D02*
X22090788Y54199200D01*
X22090788Y54199200D02*
X22057455Y54132534D01*
X22057455Y54132534D02*
X22024121Y54099200D01*
X22024121Y54099200D02*
X21957455Y54065867D01*
X21957455Y54065867D02*
X21790788Y54065867D01*
X21790788Y54065867D02*
X21724121Y54099200D01*
X21724121Y54099200D02*
X21690788Y54132534D01*
X22890788Y54799200D02*
X22290788Y53899200D01*
X23490788Y54065867D02*
X23090788Y54065867D01*
X23290788Y54065867D02*
X23290788Y54765867D01*
X23290788Y54765867D02*
X23224121Y54665867D01*
X23224121Y54665867D02*
X23157455Y54599200D01*
X23157455Y54599200D02*
X23090788Y54565867D01*
X24157455Y54065867D02*
X23757455Y54065867D01*
X23957455Y54065867D02*
X23957455Y54765867D01*
X23957455Y54765867D02*
X23890788Y54665867D01*
X23890788Y54665867D02*
X23824122Y54599200D01*
X23824122Y54599200D02*
X23757455Y54565867D01*
X24957455Y54799200D02*
X24357455Y53899200D01*
X25557455Y54065867D02*
X25157455Y54065867D01*
X25357455Y54065867D02*
X25357455Y54765867D01*
X25357455Y54765867D02*
X25290788Y54665867D01*
X25290788Y54665867D02*
X25224122Y54599200D01*
X25224122Y54599200D02*
X25157455Y54565867D01*
X25790789Y54765867D02*
X26257455Y54765867D01*
X26257455Y54765867D02*
X25957455Y54065867D01*
D11*
X9704819Y32166667D02*
X10419104Y32166667D01*
X10419104Y32166667D02*
X10561961Y32119048D01*
X10561961Y32119048D02*
X10657200Y32023810D01*
X10657200Y32023810D02*
X10704819Y31880953D01*
X10704819Y31880953D02*
X10704819Y31785715D01*
X10038152Y33071429D02*
X10704819Y33071429D01*
X9657200Y32833334D02*
X10371485Y32595239D01*
X10371485Y32595239D02*
X10371485Y33214286D01*
X9454819Y41416667D02*
X10169104Y41416667D01*
X10169104Y41416667D02*
X10311961Y41369048D01*
X10311961Y41369048D02*
X10407200Y41273810D01*
X10407200Y41273810D02*
X10454819Y41130953D01*
X10454819Y41130953D02*
X10454819Y41035715D01*
X9454819Y42369048D02*
X9454819Y41892858D01*
X9454819Y41892858D02*
X9931009Y41845239D01*
X9931009Y41845239D02*
X9883390Y41892858D01*
X9883390Y41892858D02*
X9835771Y41988096D01*
X9835771Y41988096D02*
X9835771Y42226191D01*
X9835771Y42226191D02*
X9883390Y42321429D01*
X9883390Y42321429D02*
X9931009Y42369048D01*
X9931009Y42369048D02*
X10026247Y42416667D01*
X10026247Y42416667D02*
X10264342Y42416667D01*
X10264342Y42416667D02*
X10359580Y42369048D01*
X10359580Y42369048D02*
X10407200Y42321429D01*
X10407200Y42321429D02*
X10454819Y42226191D01*
X10454819Y42226191D02*
X10454819Y41988096D01*
X10454819Y41988096D02*
X10407200Y41892858D01*
X10407200Y41892858D02*
X10359580Y41845239D01*
X11583333Y22565181D02*
X11250000Y23041372D01*
X11011905Y22565181D02*
X11011905Y23565181D01*
X11011905Y23565181D02*
X11392857Y23565181D01*
X11392857Y23565181D02*
X11488095Y23517562D01*
X11488095Y23517562D02*
X11535714Y23469943D01*
X11535714Y23469943D02*
X11583333Y23374705D01*
X11583333Y23374705D02*
X11583333Y23231848D01*
X11583333Y23231848D02*
X11535714Y23136610D01*
X11535714Y23136610D02*
X11488095Y23088991D01*
X11488095Y23088991D02*
X11392857Y23041372D01*
X11392857Y23041372D02*
X11011905Y23041372D01*
X11916667Y23565181D02*
X12535714Y23565181D01*
X12535714Y23565181D02*
X12202381Y23184229D01*
X12202381Y23184229D02*
X12345238Y23184229D01*
X12345238Y23184229D02*
X12440476Y23136610D01*
X12440476Y23136610D02*
X12488095Y23088991D01*
X12488095Y23088991D02*
X12535714Y22993753D01*
X12535714Y22993753D02*
X12535714Y22755658D01*
X12535714Y22755658D02*
X12488095Y22660420D01*
X12488095Y22660420D02*
X12440476Y22612800D01*
X12440476Y22612800D02*
X12345238Y22565181D01*
X12345238Y22565181D02*
X12059524Y22565181D01*
X12059524Y22565181D02*
X11964286Y22612800D01*
X11964286Y22612800D02*
X11916667Y22660420D01*
X9704819Y23166667D02*
X10419104Y23166667D01*
X10419104Y23166667D02*
X10561961Y23119048D01*
X10561961Y23119048D02*
X10657200Y23023810D01*
X10657200Y23023810D02*
X10704819Y22880953D01*
X10704819Y22880953D02*
X10704819Y22785715D01*
X9704819Y23547620D02*
X9704819Y24166667D01*
X9704819Y24166667D02*
X10085771Y23833334D01*
X10085771Y23833334D02*
X10085771Y23976191D01*
X10085771Y23976191D02*
X10133390Y24071429D01*
X10133390Y24071429D02*
X10181009Y24119048D01*
X10181009Y24119048D02*
X10276247Y24166667D01*
X10276247Y24166667D02*
X10514342Y24166667D01*
X10514342Y24166667D02*
X10609580Y24119048D01*
X10609580Y24119048D02*
X10657200Y24071429D01*
X10657200Y24071429D02*
X10704819Y23976191D01*
X10704819Y23976191D02*
X10704819Y23690477D01*
X10704819Y23690477D02*
X10657200Y23595239D01*
X10657200Y23595239D02*
X10609580Y23547620D01*
X11583333Y49870181D02*
X11250000Y50346372D01*
X11011905Y49870181D02*
X11011905Y50870181D01*
X11011905Y50870181D02*
X11392857Y50870181D01*
X11392857Y50870181D02*
X11488095Y50822562D01*
X11488095Y50822562D02*
X11535714Y50774943D01*
X11535714Y50774943D02*
X11583333Y50679705D01*
X11583333Y50679705D02*
X11583333Y50536848D01*
X11583333Y50536848D02*
X11535714Y50441610D01*
X11535714Y50441610D02*
X11488095Y50393991D01*
X11488095Y50393991D02*
X11392857Y50346372D01*
X11392857Y50346372D02*
X11011905Y50346372D01*
X12440476Y50870181D02*
X12250000Y50870181D01*
X12250000Y50870181D02*
X12154762Y50822562D01*
X12154762Y50822562D02*
X12107143Y50774943D01*
X12107143Y50774943D02*
X12011905Y50632086D01*
X12011905Y50632086D02*
X11964286Y50441610D01*
X11964286Y50441610D02*
X11964286Y50060658D01*
X11964286Y50060658D02*
X12011905Y49965420D01*
X12011905Y49965420D02*
X12059524Y49917800D01*
X12059524Y49917800D02*
X12154762Y49870181D01*
X12154762Y49870181D02*
X12345238Y49870181D01*
X12345238Y49870181D02*
X12440476Y49917800D01*
X12440476Y49917800D02*
X12488095Y49965420D01*
X12488095Y49965420D02*
X12535714Y50060658D01*
X12535714Y50060658D02*
X12535714Y50298753D01*
X12535714Y50298753D02*
X12488095Y50393991D01*
X12488095Y50393991D02*
X12440476Y50441610D01*
X12440476Y50441610D02*
X12345238Y50489229D01*
X12345238Y50489229D02*
X12154762Y50489229D01*
X12154762Y50489229D02*
X12059524Y50441610D01*
X12059524Y50441610D02*
X12011905Y50393991D01*
X12011905Y50393991D02*
X11964286Y50298753D01*
X9454819Y49916667D02*
X10169104Y49916667D01*
X10169104Y49916667D02*
X10311961Y49869048D01*
X10311961Y49869048D02*
X10407200Y49773810D01*
X10407200Y49773810D02*
X10454819Y49630953D01*
X10454819Y49630953D02*
X10454819Y49535715D01*
X9454819Y50821429D02*
X9454819Y50630953D01*
X9454819Y50630953D02*
X9502438Y50535715D01*
X9502438Y50535715D02*
X9550057Y50488096D01*
X9550057Y50488096D02*
X9692914Y50392858D01*
X9692914Y50392858D02*
X9883390Y50345239D01*
X9883390Y50345239D02*
X10264342Y50345239D01*
X10264342Y50345239D02*
X10359580Y50392858D01*
X10359580Y50392858D02*
X10407200Y50440477D01*
X10407200Y50440477D02*
X10454819Y50535715D01*
X10454819Y50535715D02*
X10454819Y50726191D01*
X10454819Y50726191D02*
X10407200Y50821429D01*
X10407200Y50821429D02*
X10359580Y50869048D01*
X10359580Y50869048D02*
X10264342Y50916667D01*
X10264342Y50916667D02*
X10026247Y50916667D01*
X10026247Y50916667D02*
X9931009Y50869048D01*
X9931009Y50869048D02*
X9883390Y50821429D01*
X9883390Y50821429D02*
X9835771Y50726191D01*
X9835771Y50726191D02*
X9835771Y50535715D01*
X9835771Y50535715D02*
X9883390Y50440477D01*
X9883390Y50440477D02*
X9931009Y50392858D01*
X9931009Y50392858D02*
X10026247Y50345239D01*
X17916666Y47295181D02*
X17916666Y46580896D01*
X17916666Y46580896D02*
X17869047Y46438039D01*
X17869047Y46438039D02*
X17773809Y46342800D01*
X17773809Y46342800D02*
X17630952Y46295181D01*
X17630952Y46295181D02*
X17535714Y46295181D01*
X18440476Y46295181D02*
X18630952Y46295181D01*
X18630952Y46295181D02*
X18726190Y46342800D01*
X18726190Y46342800D02*
X18773809Y46390420D01*
X18773809Y46390420D02*
X18869047Y46533277D01*
X18869047Y46533277D02*
X18916666Y46723753D01*
X18916666Y46723753D02*
X18916666Y47104705D01*
X18916666Y47104705D02*
X18869047Y47199943D01*
X18869047Y47199943D02*
X18821428Y47247562D01*
X18821428Y47247562D02*
X18726190Y47295181D01*
X18726190Y47295181D02*
X18535714Y47295181D01*
X18535714Y47295181D02*
X18440476Y47247562D01*
X18440476Y47247562D02*
X18392857Y47199943D01*
X18392857Y47199943D02*
X18345238Y47104705D01*
X18345238Y47104705D02*
X18345238Y46866610D01*
X18345238Y46866610D02*
X18392857Y46771372D01*
X18392857Y46771372D02*
X18440476Y46723753D01*
X18440476Y46723753D02*
X18535714Y46676134D01*
X18535714Y46676134D02*
X18726190Y46676134D01*
X18726190Y46676134D02*
X18821428Y46723753D01*
X18821428Y46723753D02*
X18869047Y46771372D01*
X18869047Y46771372D02*
X18916666Y46866610D01*
X24583333Y23045181D02*
X24250000Y23521372D01*
X24011905Y23045181D02*
X24011905Y24045181D01*
X24011905Y24045181D02*
X24392857Y24045181D01*
X24392857Y24045181D02*
X24488095Y23997562D01*
X24488095Y23997562D02*
X24535714Y23949943D01*
X24535714Y23949943D02*
X24583333Y23854705D01*
X24583333Y23854705D02*
X24583333Y23711848D01*
X24583333Y23711848D02*
X24535714Y23616610D01*
X24535714Y23616610D02*
X24488095Y23568991D01*
X24488095Y23568991D02*
X24392857Y23521372D01*
X24392857Y23521372D02*
X24011905Y23521372D01*
X24916667Y24045181D02*
X25583333Y24045181D01*
X25583333Y24045181D02*
X25154762Y23045181D01*
X14116666Y7470181D02*
X14116666Y6755896D01*
X14116666Y6755896D02*
X14069047Y6613039D01*
X14069047Y6613039D02*
X13973809Y6517800D01*
X13973809Y6517800D02*
X13830952Y6470181D01*
X13830952Y6470181D02*
X13735714Y6470181D01*
X14497619Y7470181D02*
X15164285Y7470181D01*
X15164285Y7470181D02*
X14735714Y6470181D01*
X24011905Y21045181D02*
X24011905Y22045181D01*
X24011905Y22045181D02*
X24250000Y22045181D01*
X24250000Y22045181D02*
X24392857Y21997562D01*
X24392857Y21997562D02*
X24488095Y21902324D01*
X24488095Y21902324D02*
X24535714Y21807086D01*
X24535714Y21807086D02*
X24583333Y21616610D01*
X24583333Y21616610D02*
X24583333Y21473753D01*
X24583333Y21473753D02*
X24535714Y21283277D01*
X24535714Y21283277D02*
X24488095Y21188039D01*
X24488095Y21188039D02*
X24392857Y21092800D01*
X24392857Y21092800D02*
X24250000Y21045181D01*
X24250000Y21045181D02*
X24011905Y21045181D01*
X25535714Y21045181D02*
X24964286Y21045181D01*
X25250000Y21045181D02*
X25250000Y22045181D01*
X25250000Y22045181D02*
X25154762Y21902324D01*
X25154762Y21902324D02*
X25059524Y21807086D01*
X25059524Y21807086D02*
X24964286Y21759467D01*
X17859580Y32218334D02*
X17907200Y32170715D01*
X17907200Y32170715D02*
X17954819Y32027858D01*
X17954819Y32027858D02*
X17954819Y31932620D01*
X17954819Y31932620D02*
X17907200Y31789763D01*
X17907200Y31789763D02*
X17811961Y31694525D01*
X17811961Y31694525D02*
X17716723Y31646906D01*
X17716723Y31646906D02*
X17526247Y31599287D01*
X17526247Y31599287D02*
X17383390Y31599287D01*
X17383390Y31599287D02*
X17192914Y31646906D01*
X17192914Y31646906D02*
X17097676Y31694525D01*
X17097676Y31694525D02*
X17002438Y31789763D01*
X17002438Y31789763D02*
X16954819Y31932620D01*
X16954819Y31932620D02*
X16954819Y32027858D01*
X16954819Y32027858D02*
X17002438Y32170715D01*
X17002438Y32170715D02*
X17050057Y32218334D01*
X17954819Y33170715D02*
X17954819Y32599287D01*
X17954819Y32885001D02*
X16954819Y32885001D01*
X16954819Y32885001D02*
X17097676Y32789763D01*
X17097676Y32789763D02*
X17192914Y32694525D01*
X17192914Y32694525D02*
X17240533Y32599287D01*
X11454819Y8738096D02*
X12264342Y8738096D01*
X12264342Y8738096D02*
X12359580Y8785715D01*
X12359580Y8785715D02*
X12407200Y8833334D01*
X12407200Y8833334D02*
X12454819Y8928572D01*
X12454819Y8928572D02*
X12454819Y9119048D01*
X12454819Y9119048D02*
X12407200Y9214286D01*
X12407200Y9214286D02*
X12359580Y9261905D01*
X12359580Y9261905D02*
X12264342Y9309524D01*
X12264342Y9309524D02*
X11454819Y9309524D01*
X11550057Y9738096D02*
X11502438Y9785715D01*
X11502438Y9785715D02*
X11454819Y9880953D01*
X11454819Y9880953D02*
X11454819Y10119048D01*
X11454819Y10119048D02*
X11502438Y10214286D01*
X11502438Y10214286D02*
X11550057Y10261905D01*
X11550057Y10261905D02*
X11645295Y10309524D01*
X11645295Y10309524D02*
X11740533Y10309524D01*
X11740533Y10309524D02*
X11883390Y10261905D01*
X11883390Y10261905D02*
X12454819Y9690477D01*
X12454819Y9690477D02*
X12454819Y10309524D01*
X9704819Y13916667D02*
X10419104Y13916667D01*
X10419104Y13916667D02*
X10561961Y13869048D01*
X10561961Y13869048D02*
X10657200Y13773810D01*
X10657200Y13773810D02*
X10704819Y13630953D01*
X10704819Y13630953D02*
X10704819Y13535715D01*
X10704819Y14916667D02*
X10704819Y14345239D01*
X10704819Y14630953D02*
X9704819Y14630953D01*
X9704819Y14630953D02*
X9847676Y14535715D01*
X9847676Y14535715D02*
X9942914Y14440477D01*
X9942914Y14440477D02*
X9990533Y14345239D01*
X21219819Y8054167D02*
X21934104Y8054167D01*
X21934104Y8054167D02*
X22076961Y8006548D01*
X22076961Y8006548D02*
X22172200Y7911310D01*
X22172200Y7911310D02*
X22219819Y7768453D01*
X22219819Y7768453D02*
X22219819Y7673215D01*
X21648390Y8673215D02*
X21600771Y8577977D01*
X21600771Y8577977D02*
X21553152Y8530358D01*
X21553152Y8530358D02*
X21457914Y8482739D01*
X21457914Y8482739D02*
X21410295Y8482739D01*
X21410295Y8482739D02*
X21315057Y8530358D01*
X21315057Y8530358D02*
X21267438Y8577977D01*
X21267438Y8577977D02*
X21219819Y8673215D01*
X21219819Y8673215D02*
X21219819Y8863691D01*
X21219819Y8863691D02*
X21267438Y8958929D01*
X21267438Y8958929D02*
X21315057Y9006548D01*
X21315057Y9006548D02*
X21410295Y9054167D01*
X21410295Y9054167D02*
X21457914Y9054167D01*
X21457914Y9054167D02*
X21553152Y9006548D01*
X21553152Y9006548D02*
X21600771Y8958929D01*
X21600771Y8958929D02*
X21648390Y8863691D01*
X21648390Y8863691D02*
X21648390Y8673215D01*
X21648390Y8673215D02*
X21696009Y8577977D01*
X21696009Y8577977D02*
X21743628Y8530358D01*
X21743628Y8530358D02*
X21838866Y8482739D01*
X21838866Y8482739D02*
X22029342Y8482739D01*
X22029342Y8482739D02*
X22124580Y8530358D01*
X22124580Y8530358D02*
X22172200Y8577977D01*
X22172200Y8577977D02*
X22219819Y8673215D01*
X22219819Y8673215D02*
X22219819Y8863691D01*
X22219819Y8863691D02*
X22172200Y8958929D01*
X22172200Y8958929D02*
X22124580Y9006548D01*
X22124580Y9006548D02*
X22029342Y9054167D01*
X22029342Y9054167D02*
X21838866Y9054167D01*
X21838866Y9054167D02*
X21743628Y9006548D01*
X21743628Y9006548D02*
X21696009Y8958929D01*
X21696009Y8958929D02*
X21648390Y8863691D01*
X18288095Y31935181D02*
X18288095Y31125658D01*
X18288095Y31125658D02*
X18335714Y31030420D01*
X18335714Y31030420D02*
X18383333Y30982800D01*
X18383333Y30982800D02*
X18478571Y30935181D01*
X18478571Y30935181D02*
X18669047Y30935181D01*
X18669047Y30935181D02*
X18764285Y30982800D01*
X18764285Y30982800D02*
X18811904Y31030420D01*
X18811904Y31030420D02*
X18859523Y31125658D01*
X18859523Y31125658D02*
X18859523Y31935181D01*
X19859523Y30935181D02*
X19288095Y30935181D01*
X19573809Y30935181D02*
X19573809Y31935181D01*
X19573809Y31935181D02*
X19478571Y31792324D01*
X19478571Y31792324D02*
X19383333Y31697086D01*
X19383333Y31697086D02*
X19288095Y31649467D01*
X11833333Y13675181D02*
X11500000Y14151372D01*
X11261905Y13675181D02*
X11261905Y14675181D01*
X11261905Y14675181D02*
X11642857Y14675181D01*
X11642857Y14675181D02*
X11738095Y14627562D01*
X11738095Y14627562D02*
X11785714Y14579943D01*
X11785714Y14579943D02*
X11833333Y14484705D01*
X11833333Y14484705D02*
X11833333Y14341848D01*
X11833333Y14341848D02*
X11785714Y14246610D01*
X11785714Y14246610D02*
X11738095Y14198991D01*
X11738095Y14198991D02*
X11642857Y14151372D01*
X11642857Y14151372D02*
X11261905Y14151372D01*
X12214286Y14579943D02*
X12261905Y14627562D01*
X12261905Y14627562D02*
X12357143Y14675181D01*
X12357143Y14675181D02*
X12595238Y14675181D01*
X12595238Y14675181D02*
X12690476Y14627562D01*
X12690476Y14627562D02*
X12738095Y14579943D01*
X12738095Y14579943D02*
X12785714Y14484705D01*
X12785714Y14484705D02*
X12785714Y14389467D01*
X12785714Y14389467D02*
X12738095Y14246610D01*
X12738095Y14246610D02*
X12166667Y13675181D01*
X12166667Y13675181D02*
X12785714Y13675181D01*
X13274819Y35758334D02*
X12798628Y35425001D01*
X13274819Y35186906D02*
X12274819Y35186906D01*
X12274819Y35186906D02*
X12274819Y35567858D01*
X12274819Y35567858D02*
X12322438Y35663096D01*
X12322438Y35663096D02*
X12370057Y35710715D01*
X12370057Y35710715D02*
X12465295Y35758334D01*
X12465295Y35758334D02*
X12608152Y35758334D01*
X12608152Y35758334D02*
X12703390Y35710715D01*
X12703390Y35710715D02*
X12751009Y35663096D01*
X12751009Y35663096D02*
X12798628Y35567858D01*
X12798628Y35567858D02*
X12798628Y35186906D01*
X13274819Y36710715D02*
X13274819Y36139287D01*
X13274819Y36425001D02*
X12274819Y36425001D01*
X12274819Y36425001D02*
X12417676Y36329763D01*
X12417676Y36329763D02*
X12512914Y36234525D01*
X12512914Y36234525D02*
X12560533Y36139287D01*
X25919580Y29043334D02*
X25967200Y28995715D01*
X25967200Y28995715D02*
X26014819Y28852858D01*
X26014819Y28852858D02*
X26014819Y28757620D01*
X26014819Y28757620D02*
X25967200Y28614763D01*
X25967200Y28614763D02*
X25871961Y28519525D01*
X25871961Y28519525D02*
X25776723Y28471906D01*
X25776723Y28471906D02*
X25586247Y28424287D01*
X25586247Y28424287D02*
X25443390Y28424287D01*
X25443390Y28424287D02*
X25252914Y28471906D01*
X25252914Y28471906D02*
X25157676Y28519525D01*
X25157676Y28519525D02*
X25062438Y28614763D01*
X25062438Y28614763D02*
X25014819Y28757620D01*
X25014819Y28757620D02*
X25014819Y28852858D01*
X25014819Y28852858D02*
X25062438Y28995715D01*
X25062438Y28995715D02*
X25110057Y29043334D01*
X25110057Y29424287D02*
X25062438Y29471906D01*
X25062438Y29471906D02*
X25014819Y29567144D01*
X25014819Y29567144D02*
X25014819Y29805239D01*
X25014819Y29805239D02*
X25062438Y29900477D01*
X25062438Y29900477D02*
X25110057Y29948096D01*
X25110057Y29948096D02*
X25205295Y29995715D01*
X25205295Y29995715D02*
X25300533Y29995715D01*
X25300533Y29995715D02*
X25443390Y29948096D01*
X25443390Y29948096D02*
X26014819Y29376668D01*
X26014819Y29376668D02*
X26014819Y29995715D01*
X11583333Y40975181D02*
X11250000Y41451372D01*
X11011905Y40975181D02*
X11011905Y41975181D01*
X11011905Y41975181D02*
X11392857Y41975181D01*
X11392857Y41975181D02*
X11488095Y41927562D01*
X11488095Y41927562D02*
X11535714Y41879943D01*
X11535714Y41879943D02*
X11583333Y41784705D01*
X11583333Y41784705D02*
X11583333Y41641848D01*
X11583333Y41641848D02*
X11535714Y41546610D01*
X11535714Y41546610D02*
X11488095Y41498991D01*
X11488095Y41498991D02*
X11392857Y41451372D01*
X11392857Y41451372D02*
X11011905Y41451372D01*
X12488095Y41975181D02*
X12011905Y41975181D01*
X12011905Y41975181D02*
X11964286Y41498991D01*
X11964286Y41498991D02*
X12011905Y41546610D01*
X12011905Y41546610D02*
X12107143Y41594229D01*
X12107143Y41594229D02*
X12345238Y41594229D01*
X12345238Y41594229D02*
X12440476Y41546610D01*
X12440476Y41546610D02*
X12488095Y41498991D01*
X12488095Y41498991D02*
X12535714Y41403753D01*
X12535714Y41403753D02*
X12535714Y41165658D01*
X12535714Y41165658D02*
X12488095Y41070420D01*
X12488095Y41070420D02*
X12440476Y41022800D01*
X12440476Y41022800D02*
X12345238Y40975181D01*
X12345238Y40975181D02*
X12107143Y40975181D01*
X12107143Y40975181D02*
X12011905Y41022800D01*
X12011905Y41022800D02*
X11964286Y41070420D01*
X11583333Y31455181D02*
X11250000Y31931372D01*
X11011905Y31455181D02*
X11011905Y32455181D01*
X11011905Y32455181D02*
X11392857Y32455181D01*
X11392857Y32455181D02*
X11488095Y32407562D01*
X11488095Y32407562D02*
X11535714Y32359943D01*
X11535714Y32359943D02*
X11583333Y32264705D01*
X11583333Y32264705D02*
X11583333Y32121848D01*
X11583333Y32121848D02*
X11535714Y32026610D01*
X11535714Y32026610D02*
X11488095Y31978991D01*
X11488095Y31978991D02*
X11392857Y31931372D01*
X11392857Y31931372D02*
X11011905Y31931372D01*
X12440476Y32121848D02*
X12440476Y31455181D01*
X12202381Y32502800D02*
X11964286Y31788515D01*
X11964286Y31788515D02*
X12583333Y31788515D01*
D12*
X722500Y35860000D02*
X9142500Y35860000D01*
X722500Y28140000D02*
X722500Y35860000D01*
X1942500Y35860000D02*
X1942500Y34640000D01*
X1942500Y34640000D02*
X6942500Y34640000D01*
X1942500Y29360000D02*
X6942500Y29360000D01*
X1942500Y28140000D02*
X1942500Y29360000D01*
X2442500Y33250000D02*
X2522500Y33570000D01*
X2442500Y30750000D02*
X2522500Y31070000D01*
X2522500Y33570000D02*
X5942500Y33570000D01*
X2522500Y32930000D02*
X2442500Y33250000D01*
X2522500Y31070000D02*
X5942500Y31070000D01*
X2522500Y30430000D02*
X2442500Y30750000D01*
X5942500Y33570000D02*
X5942500Y33250000D01*
X5942500Y33250000D02*
X5942500Y32930000D01*
X5942500Y32930000D02*
X2522500Y32930000D01*
X5942500Y31070000D02*
X5942500Y30750000D01*
X5942500Y30750000D02*
X5942500Y30430000D01*
X5942500Y30430000D02*
X2522500Y30430000D01*
X5942500Y29360000D02*
X5942500Y34640000D01*
X6942500Y34640000D02*
X6942500Y35860000D01*
X6942500Y31920000D02*
X6942500Y32080000D01*
X6942500Y29360000D02*
X6942500Y28140000D01*
X6942500Y29360000D02*
X9142500Y29360000D01*
X9032500Y30750000D02*
X9632500Y30450000D01*
X9142500Y35860000D02*
X9142500Y34640000D01*
X9142500Y34640000D02*
X6942500Y34640000D01*
X9142500Y29360000D02*
X9142500Y28140000D01*
X9142500Y28140000D02*
X722500Y28140000D01*
X9632500Y31050000D02*
X9032500Y30750000D01*
X9632500Y30450000D02*
X9632500Y31050000D01*
X722500Y44860000D02*
X9142500Y44860000D01*
X722500Y37140000D02*
X722500Y44860000D01*
X1942500Y44860000D02*
X1942500Y43640000D01*
X1942500Y43640000D02*
X6942500Y43640000D01*
X1942500Y38360000D02*
X6942500Y38360000D01*
X1942500Y37140000D02*
X1942500Y38360000D01*
X2442500Y42250000D02*
X2522500Y42570000D01*
X2442500Y39750000D02*
X2522500Y40070000D01*
X2522500Y42570000D02*
X5942500Y42570000D01*
X2522500Y41930000D02*
X2442500Y42250000D01*
X2522500Y40070000D02*
X5942500Y40070000D01*
X2522500Y39430000D02*
X2442500Y39750000D01*
X5942500Y42570000D02*
X5942500Y42250000D01*
X5942500Y42250000D02*
X5942500Y41930000D01*
X5942500Y41930000D02*
X2522500Y41930000D01*
X5942500Y40070000D02*
X5942500Y39750000D01*
X5942500Y39750000D02*
X5942500Y39430000D01*
X5942500Y39430000D02*
X2522500Y39430000D01*
X5942500Y38360000D02*
X5942500Y43640000D01*
X6942500Y43640000D02*
X6942500Y44860000D01*
X6942500Y40920000D02*
X6942500Y41080000D01*
X6942500Y38360000D02*
X6942500Y37140000D01*
X6942500Y38360000D02*
X9142500Y38360000D01*
X9032500Y39750000D02*
X9632500Y39450000D01*
X9142500Y44860000D02*
X9142500Y43640000D01*
X9142500Y43640000D02*
X6942500Y43640000D01*
X9142500Y38360000D02*
X9142500Y37140000D01*
X9142500Y37140000D02*
X722500Y37140000D01*
X9632500Y40050000D02*
X9032500Y39750000D01*
X9632500Y39450000D02*
X9632500Y40050000D01*
X11192742Y22112500D02*
X11667258Y22112500D01*
X11192742Y21067500D02*
X11667258Y21067500D01*
X722500Y26860000D02*
X9142500Y26860000D01*
X722500Y19140000D02*
X722500Y26860000D01*
X1942500Y26860000D02*
X1942500Y25640000D01*
X1942500Y25640000D02*
X6942500Y25640000D01*
X1942500Y20360000D02*
X6942500Y20360000D01*
X1942500Y19140000D02*
X1942500Y20360000D01*
X2442500Y24250000D02*
X2522500Y24570000D01*
X2442500Y21750000D02*
X2522500Y22070000D01*
X2522500Y24570000D02*
X5942500Y24570000D01*
X2522500Y23930000D02*
X2442500Y24250000D01*
X2522500Y22070000D02*
X5942500Y22070000D01*
X2522500Y21430000D02*
X2442500Y21750000D01*
X5942500Y24570000D02*
X5942500Y24250000D01*
X5942500Y24250000D02*
X5942500Y23930000D01*
X5942500Y23930000D02*
X2522500Y23930000D01*
X5942500Y22070000D02*
X5942500Y21750000D01*
X5942500Y21750000D02*
X5942500Y21430000D01*
X5942500Y21430000D02*
X2522500Y21430000D01*
X5942500Y20360000D02*
X5942500Y25640000D01*
X6942500Y25640000D02*
X6942500Y26860000D01*
X6942500Y22920000D02*
X6942500Y23080000D01*
X6942500Y20360000D02*
X6942500Y19140000D01*
X6942500Y20360000D02*
X9142500Y20360000D01*
X9032500Y21750000D02*
X9632500Y21450000D01*
X9142500Y26860000D02*
X9142500Y25640000D01*
X9142500Y25640000D02*
X6942500Y25640000D01*
X9142500Y20360000D02*
X9142500Y19140000D01*
X9142500Y19140000D02*
X722500Y19140000D01*
X9632500Y22050000D02*
X9032500Y21750000D01*
X9632500Y21450000D02*
X9632500Y22050000D01*
X11192742Y49417500D02*
X11667258Y49417500D01*
X11192742Y48372500D02*
X11667258Y48372500D01*
X722500Y53860000D02*
X9142500Y53860000D01*
X722500Y46140000D02*
X722500Y53860000D01*
X1942500Y53860000D02*
X1942500Y52640000D01*
X1942500Y52640000D02*
X6942500Y52640000D01*
X1942500Y47360000D02*
X6942500Y47360000D01*
X1942500Y46140000D02*
X1942500Y47360000D01*
X2442500Y51250000D02*
X2522500Y51570000D01*
X2442500Y48750000D02*
X2522500Y49070000D01*
X2522500Y51570000D02*
X5942500Y51570000D01*
X2522500Y50930000D02*
X2442500Y51250000D01*
X2522500Y49070000D02*
X5942500Y49070000D01*
X2522500Y48430000D02*
X2442500Y48750000D01*
X5942500Y51570000D02*
X5942500Y51250000D01*
X5942500Y51250000D02*
X5942500Y50930000D01*
X5942500Y50930000D02*
X2522500Y50930000D01*
X5942500Y49070000D02*
X5942500Y48750000D01*
X5942500Y48750000D02*
X5942500Y48430000D01*
X5942500Y48430000D02*
X2522500Y48430000D01*
X5942500Y47360000D02*
X5942500Y52640000D01*
X6942500Y52640000D02*
X6942500Y53860000D01*
X6942500Y49920000D02*
X6942500Y50080000D01*
X6942500Y47360000D02*
X6942500Y46140000D01*
X6942500Y47360000D02*
X9142500Y47360000D01*
X9032500Y48750000D02*
X9632500Y48450000D01*
X9142500Y53860000D02*
X9142500Y52640000D01*
X9142500Y52640000D02*
X6942500Y52640000D01*
X9142500Y47360000D02*
X9142500Y46140000D01*
X9142500Y46140000D02*
X722500Y46140000D01*
X9632500Y49050000D02*
X9032500Y48750000D01*
X9632500Y48450000D02*
X9632500Y49050000D01*
X17330000Y33940000D02*
X17330000Y35000000D01*
X18265000Y33940000D02*
X17330000Y33940000D01*
X19475000Y45360000D02*
X19127917Y45360000D01*
X19475000Y44640000D02*
X19127917Y44640000D01*
X19475000Y43360000D02*
X19127917Y43360000D01*
X19475000Y42640000D02*
X19127917Y42640000D01*
X19475000Y41360000D02*
X19127917Y41360000D01*
X19475000Y40640000D02*
X19127917Y40640000D01*
X19475000Y39360000D02*
X19127917Y39360000D01*
X19475000Y38640000D02*
X19127917Y38640000D01*
X19475000Y37360000D02*
X19127917Y37360000D01*
X19475000Y36640000D02*
X19127917Y36640000D01*
X19475000Y35360000D02*
X19200000Y35360000D01*
X19475000Y34640000D02*
X19200000Y34640000D01*
X19475000Y33940000D02*
X19475000Y46060000D01*
X25945000Y46060000D02*
X19475000Y46060000D01*
X25945000Y44000000D02*
X19475000Y44000000D01*
X25945000Y42000000D02*
X19475000Y42000000D01*
X25945000Y40000000D02*
X19475000Y40000000D01*
X25945000Y38000000D02*
X19475000Y38000000D01*
X25945000Y36000000D02*
X19475000Y36000000D01*
X25945000Y35885888D02*
X19475000Y35885888D01*
X25945000Y35771770D02*
X19475000Y35771770D01*
X25945000Y35657652D02*
X19475000Y35657652D01*
X25945000Y35543534D02*
X19475000Y35543534D01*
X25945000Y35429416D02*
X19475000Y35429416D01*
X25945000Y35315298D02*
X19475000Y35315298D01*
X25945000Y35201180D02*
X19475000Y35201180D01*
X25945000Y35087062D02*
X19475000Y35087062D01*
X25945000Y34972944D02*
X19475000Y34972944D01*
X25945000Y34858826D02*
X19475000Y34858826D01*
X25945000Y34744708D02*
X19475000Y34744708D01*
X25945000Y34630590D02*
X19475000Y34630590D01*
X25945000Y34516472D02*
X19475000Y34516472D01*
X25945000Y34402354D02*
X19475000Y34402354D01*
X25945000Y34288236D02*
X19475000Y34288236D01*
X25945000Y34174118D02*
X19475000Y34174118D01*
X25945000Y34060000D02*
X19475000Y34060000D01*
X25945000Y33940000D02*
X19475000Y33940000D01*
X25945000Y33940000D02*
X25945000Y46060000D01*
X21987742Y24017500D02*
X22462258Y24017500D01*
X21987742Y22972500D02*
X22462258Y22972500D01*
X10640000Y5335000D02*
X11020000Y5335000D01*
X10640000Y3565000D02*
X10640000Y5335000D01*
X10640000Y1025000D02*
X10640000Y1285000D01*
X18260000Y5335000D02*
X17880000Y5335000D01*
X18260000Y5335000D02*
X18260000Y3565000D01*
X18260000Y1285000D02*
X18260000Y1025000D01*
X20740000Y22325000D02*
X20740000Y20855000D01*
X20740000Y20855000D02*
X23025000Y20855000D01*
X23025000Y22325000D02*
X20740000Y22325000D01*
X15490000Y32525580D02*
X15490000Y32244420D01*
X16510000Y32525580D02*
X16510000Y32244420D01*
X13190000Y10410000D02*
X13240000Y10410000D01*
X13190000Y8590000D02*
X13190000Y10410000D01*
X13240000Y8590000D02*
X13190000Y8590000D01*
X16260000Y10410000D02*
X16310000Y10410000D01*
X16310000Y10410000D02*
X16310000Y8590000D01*
X16310000Y8590000D02*
X16260000Y8590000D01*
X13240000Y8050000D02*
X12910000Y7810000D01*
X12910000Y8290000D01*
X13240000Y8050000D01*
G36*
X13240000Y8050000D02*
G01*
X12910000Y7810000D01*
X12910000Y8290000D01*
X13240000Y8050000D01*
G37*
X722500Y17860000D02*
X9142500Y17860000D01*
X722500Y10140000D02*
X722500Y17860000D01*
X1942500Y17860000D02*
X1942500Y16640000D01*
X1942500Y16640000D02*
X6942500Y16640000D01*
X1942500Y11360000D02*
X6942500Y11360000D01*
X1942500Y10140000D02*
X1942500Y11360000D01*
X2442500Y15250000D02*
X2522500Y15570000D01*
X2442500Y12750000D02*
X2522500Y13070000D01*
X2522500Y15570000D02*
X5942500Y15570000D01*
X2522500Y14930000D02*
X2442500Y15250000D01*
X2522500Y13070000D02*
X5942500Y13070000D01*
X2522500Y12430000D02*
X2442500Y12750000D01*
X5942500Y15570000D02*
X5942500Y15250000D01*
X5942500Y15250000D02*
X5942500Y14930000D01*
X5942500Y14930000D02*
X2522500Y14930000D01*
X5942500Y13070000D02*
X5942500Y12750000D01*
X5942500Y12750000D02*
X5942500Y12430000D01*
X5942500Y12430000D02*
X2522500Y12430000D01*
X5942500Y11360000D02*
X5942500Y16640000D01*
X6942500Y16640000D02*
X6942500Y17860000D01*
X6942500Y13920000D02*
X6942500Y14080000D01*
X6942500Y11360000D02*
X6942500Y10140000D01*
X6942500Y11360000D02*
X9142500Y11360000D01*
X9032500Y12750000D02*
X9632500Y12450000D01*
X9142500Y17860000D02*
X9142500Y16640000D01*
X9142500Y16640000D02*
X6942500Y16640000D01*
X9142500Y11360000D02*
X9142500Y10140000D01*
X9142500Y10140000D02*
X722500Y10140000D01*
X9632500Y13050000D02*
X9032500Y12750000D01*
X9632500Y12450000D02*
X9632500Y13050000D01*
X20925000Y9297500D02*
X20925000Y7477500D01*
X20875000Y9297500D02*
X20925000Y9297500D01*
X18975000Y9297500D02*
X19755000Y9297500D01*
X17805000Y9297500D02*
X17855000Y9297500D01*
X20925000Y7477500D02*
X19925000Y7477500D01*
X18805000Y7477500D02*
X17805000Y7477500D01*
X17805000Y7477500D02*
X17805000Y9297500D01*
X19745000Y9837500D02*
X19415000Y9597500D01*
X19415000Y10077500D01*
X19745000Y9837500D01*
G36*
X19745000Y9837500D02*
G01*
X19415000Y9597500D01*
X19415000Y10077500D01*
X19745000Y9837500D01*
G37*
X16740000Y30550000D02*
X21360000Y30550000D01*
X16740000Y30350000D02*
X16740000Y30550000D01*
X16740000Y25330000D02*
X16740000Y25530000D01*
X21360000Y30550000D02*
X21360000Y30350000D01*
X21360000Y25530000D02*
X21360000Y25330000D01*
X21360000Y25330000D02*
X16740000Y25330000D01*
X16100000Y30350000D02*
X15760000Y30820000D01*
X16440000Y30820000D01*
X16100000Y30350000D01*
G36*
X16100000Y30350000D02*
G01*
X15760000Y30820000D01*
X16440000Y30820000D01*
X16100000Y30350000D01*
G37*
X11192742Y13222500D02*
X11667258Y13222500D01*
X11192742Y12177500D02*
X11667258Y12177500D01*
X13727500Y35687742D02*
X13727500Y36162258D01*
X14772500Y35687742D02*
X14772500Y36162258D01*
X23620000Y29350580D02*
X23620000Y29069420D01*
X24640000Y29350580D02*
X24640000Y29069420D01*
X11192742Y40522500D02*
X11667258Y40522500D01*
X11192742Y39477500D02*
X11667258Y39477500D01*
X11382742Y31002500D02*
X11857258Y31002500D01*
X11382742Y29957500D02*
X11857258Y29957500D01*
M02*
