G04 #@! TF.GenerationSoftware,KiCad,Pcbnew,9.0.6*
G04 #@! TF.CreationDate,2025-11-17T13:48:36+09:00*
G04 #@! TF.ProjectId,cap-locator,6361702d-6c6f-4636-9174-6f722e6b6963,rev?*
G04 #@! TF.SameCoordinates,PX7bfa480PY7bfa480*
G04 #@! TF.FileFunction,Soldermask,Top*
G04 #@! TF.FilePolarity,Negative*
%FSLAX46Y46*%
G04 Gerber Fmt 4.6, Leading zero omitted, Abs format (unit mm)*
G04 Created by KiCad (PCBNEW 9.0.6) date 2025-11-17 13:48:36*
%MOMM*%
%LPD*%
G01*
G04 APERTURE LIST*
G04 Aperture macros list*
%AMRoundRect*
0 Rectangle with rounded corners*
0 $1 Rounding radius*
0 $2 $3 $4 $5 $6 $7 $8 $9 X,Y pos of 4 corners*
0 Add a 4 corners polygon primitive as box body*
4,1,4,$2,$3,$4,$5,$6,$7,$8,$9,$2,$3,0*
0 Add four circle primitives for the rounded corners*
1,1,$1+$1,$2,$3*
1,1,$1+$1,$4,$5*
1,1,$1+$1,$6,$7*
1,1,$1+$1,$8,$9*
0 Add four rect primitives between the rounded corners*
20,1,$1+$1,$2,$3,$4,$5,0*
20,1,$1+$1,$4,$5,$6,$7,0*
20,1,$1+$1,$6,$7,$8,$9,0*
20,1,$1+$1,$8,$9,$2,$3,0*%
G04 Aperture macros list end*
%ADD10C,3.200000*%
%ADD11RoundRect,0.250000X0.750000X-0.600000X0.750000X0.600000X-0.750000X0.600000X-0.750000X-0.600000X0*%
%ADD12O,2.000000X1.700000*%
%ADD13RoundRect,0.200000X-0.200000X-0.275000X0.200000X-0.275000X0.200000X0.275000X-0.200000X0.275000X0*%
%ADD14R,1.350000X1.350000*%
%ADD15C,1.350000*%
%ADD16R,0.450000X1.380000*%
%ADD17R,1.650000X1.300000*%
%ADD18R,1.425000X1.550000*%
%ADD19R,1.800000X1.900000*%
%ADD20R,1.000000X1.900000*%
%ADD21RoundRect,0.218750X-0.218750X-0.256250X0.218750X-0.256250X0.218750X0.256250X-0.218750X0.256250X0*%
%ADD22RoundRect,0.225000X-0.250000X0.225000X-0.250000X-0.225000X0.250000X-0.225000X0.250000X0.225000X0*%
%ADD23RoundRect,0.150000X0.150000X-0.512500X0.150000X0.512500X-0.150000X0.512500X-0.150000X-0.512500X0*%
%ADD24RoundRect,0.150000X-0.150000X0.512500X-0.150000X-0.512500X0.150000X-0.512500X0.150000X0.512500X0*%
%ADD25RoundRect,0.100000X-0.637500X-0.100000X0.637500X-0.100000X0.637500X0.100000X-0.637500X0.100000X0*%
%ADD26RoundRect,0.200000X0.275000X-0.200000X0.275000X0.200000X-0.275000X0.200000X-0.275000X-0.200000X0*%
G04 APERTURE END LIST*
D10*
X5000000Y5000000D03*
X22000000Y51000000D03*
D11*
X7532500Y30750000D03*
D12*
X7532500Y33250000D03*
D11*
X7532500Y39750000D03*
D12*
X7532500Y42250000D03*
D13*
X10605000Y21590000D03*
X12255000Y21590000D03*
D11*
X7532500Y21750000D03*
D12*
X7532500Y24250000D03*
D13*
X10605000Y48895000D03*
X12255000Y48895000D03*
D11*
X7532500Y48750000D03*
D12*
X7532500Y51250000D03*
D14*
X18265000Y35000000D03*
D15*
X18265000Y37000000D03*
X18265000Y39000000D03*
X18265000Y41000000D03*
X18265000Y43000000D03*
X18265000Y45000000D03*
D13*
X21400000Y23495000D03*
X23050000Y23495000D03*
D16*
X13150000Y5085000D03*
X13800000Y5085000D03*
X14450000Y5085000D03*
X15100000Y5085000D03*
X15750000Y5085000D03*
D17*
X11075000Y2425000D03*
D18*
X11962500Y5000000D03*
D19*
X13300000Y2425000D03*
D20*
X16000000Y2425000D03*
D18*
X16937500Y5000000D03*
D17*
X17825000Y2425000D03*
D21*
X21437500Y21590000D03*
X23012500Y21590000D03*
D22*
X16000000Y33160000D03*
X16000000Y31610000D03*
D23*
X13800000Y8362500D03*
X14750000Y8362500D03*
X15700000Y8362500D03*
X15700000Y10637500D03*
X14750000Y10637500D03*
X13800000Y10637500D03*
D11*
X7532500Y12750000D03*
D12*
X7532500Y15250000D03*
D24*
X20315000Y9525000D03*
X18415000Y9525000D03*
X19365000Y7250000D03*
D25*
X16187500Y29890000D03*
X16187500Y29240000D03*
X16187500Y28590000D03*
X16187500Y27940000D03*
X16187500Y27290000D03*
X16187500Y26640000D03*
X16187500Y25990000D03*
X21912500Y25990000D03*
X21912500Y26640000D03*
X21912500Y27290000D03*
X21912500Y27940000D03*
X21912500Y28590000D03*
X21912500Y29240000D03*
X21912500Y29890000D03*
D13*
X10605000Y12700000D03*
X12255000Y12700000D03*
D26*
X14250000Y35100000D03*
X14250000Y36750000D03*
D22*
X24130000Y29985000D03*
X24130000Y28435000D03*
D13*
X10605000Y40000000D03*
X12255000Y40000000D03*
X10795000Y30480000D03*
X12445000Y30480000D03*
M02*
