M48
; DRILL file {KiCad 9.0.6} date 2025-11-17T13:48:44+0900
; FORMAT={-:-/ absolute / metric / decimal}
; #@! TF.CreationDate,2025-11-17T13:48:44+09:00
; #@! TF.GenerationSoftware,Kicad,Pcbnew,9.0.6
; #@! TF.FileFunction,MixedPlating,1,2
FMAT,2
METRIC
; #@! TA.AperFunction,Plated,PTH,ViaDrill
T1C0.300
; #@! TA.AperFunction,Plated,PTH,ComponentDrill
T2C0.800
; #@! TA.AperFunction,Plated,PTH,ComponentDrill
T3C1.000
; #@! TA.AperFunction,NonPlated,NPTH,ComponentDrill
T4C3.200
%
G90
G05
T1
X2.54Y9.525
X2.54Y6.35
X2.54Y1.905
X8.255Y9.525
X8.255Y6.35
X8.255Y1.905
X11.43Y54.61
X11.43Y52.07
X11.43Y36.195
X11.43Y25.4
X11.43Y19.685
X11.43Y15.24
X13.75Y6.75
X13.97Y40.005
X13.97Y33.02
X15.25Y18.25
X15.875Y54.61
X15.875Y52.07
X15.875Y48.26
X15.875Y43.815
X16.0Y6.75
X16.25Y18.0
X18.99Y24.825
X19.685Y31.115
X19.75Y36.75
X20.32Y34.29
X20.32Y29.21
X20.32Y23.495
X20.32Y19.685
X20.32Y15.24
X20.32Y1.905
X20.333Y28.435
X20.955Y54.61
X20.955Y48.26
X20.955Y34.925
X20.955Y31.75
X23.495Y19.685
X23.495Y15.24
X24.13Y6.35
X24.13Y1.905
X25.4Y54.61
X25.4Y51.435
X25.4Y48.26
X25.4Y36.195
T2
X18.265Y45.0
X18.265Y43.0
X18.265Y41.0
X18.265Y39.0
X18.265Y37.0
X18.265Y35.0
T3
X7.532Y51.25
X7.532Y48.75
X7.532Y42.25
X7.532Y39.75
X7.532Y33.25
X7.532Y30.75
X7.532Y24.25
X7.532Y21.75
X7.532Y15.25
X7.532Y12.75
T4
X5.0Y5.0
X22.0Y51.0
M30
