G04 #@! TF.GenerationSoftware,KiCad,Pcbnew,9.0.6*
G04 #@! TF.CreationDate,2025-11-17T13:48:36+09:00*
G04 #@! TF.ProjectId,cap-locator,6361702d-6c6f-4636-9174-6f722e6b6963,rev?*
G04 #@! TF.SameCoordinates,PX7bfa480PY7bfa480*
G04 #@! TF.FileFunction,Copper,L1,Top*
G04 #@! TF.FilePolarity,Positive*
%FSLAX46Y46*%
G04 Gerber Fmt 4.6, Leading zero omitted, Abs format (unit mm)*
G04 Created by KiCad (PCBNEW 9.0.6) date 2025-11-17 13:48:36*
%MOMM*%
%LPD*%
G01*
G04 APERTURE LIST*
G04 Aperture macros list*
%AMRoundRect*
0 Rectangle with rounded corners*
0 $1 Rounding radius*
0 $2 $3 $4 $5 $6 $7 $8 $9 X,Y pos of 4 corners*
0 Add a 4 corners polygon primitive as box body*
4,1,4,$2,$3,$4,$5,$6,$7,$8,$9,$2,$3,0*
0 Add four circle primitives for the rounded corners*
1,1,$1+$1,$2,$3*
1,1,$1+$1,$4,$5*
1,1,$1+$1,$6,$7*
1,1,$1+$1,$8,$9*
0 Add four rect primitives between the rounded corners*
20,1,$1+$1,$2,$3,$4,$5,0*
20,1,$1+$1,$4,$5,$6,$7,0*
20,1,$1+$1,$6,$7,$8,$9,0*
20,1,$1+$1,$8,$9,$2,$3,0*%
G04 Aperture macros list end*
G04 #@! TA.AperFunction,ComponentPad*
%ADD10RoundRect,0.250000X0.750000X-0.600000X0.750000X0.600000X-0.750000X0.600000X-0.750000X-0.600000X0*%
G04 #@! TD*
G04 #@! TA.AperFunction,ComponentPad*
%ADD11O,2.000000X1.700000*%
G04 #@! TD*
G04 #@! TA.AperFunction,SMDPad,CuDef*
%ADD12RoundRect,0.200000X-0.200000X-0.275000X0.200000X-0.275000X0.200000X0.275000X-0.200000X0.275000X0*%
G04 #@! TD*
G04 #@! TA.AperFunction,ComponentPad*
%ADD13R,1.350000X1.350000*%
G04 #@! TD*
G04 #@! TA.AperFunction,ComponentPad*
%ADD14C,1.350000*%
G04 #@! TD*
G04 #@! TA.AperFunction,SMDPad,CuDef*
%ADD15R,0.450000X1.380000*%
G04 #@! TD*
G04 #@! TA.AperFunction,SMDPad,CuDef*
%ADD16R,1.650000X1.300000*%
G04 #@! TD*
G04 #@! TA.AperFunction,SMDPad,CuDef*
%ADD17R,1.425000X1.550000*%
G04 #@! TD*
G04 #@! TA.AperFunction,SMDPad,CuDef*
%ADD18R,1.800000X1.900000*%
G04 #@! TD*
G04 #@! TA.AperFunction,SMDPad,CuDef*
%ADD19R,1.000000X1.900000*%
G04 #@! TD*
G04 #@! TA.AperFunction,SMDPad,CuDef*
%ADD20RoundRect,0.218750X-0.218750X-0.256250X0.218750X-0.256250X0.218750X0.256250X-0.218750X0.256250X0*%
G04 #@! TD*
G04 #@! TA.AperFunction,SMDPad,CuDef*
%ADD21RoundRect,0.225000X-0.250000X0.225000X-0.250000X-0.225000X0.250000X-0.225000X0.250000X0.225000X0*%
G04 #@! TD*
G04 #@! TA.AperFunction,SMDPad,CuDef*
%ADD22RoundRect,0.150000X0.150000X-0.512500X0.150000X0.512500X-0.150000X0.512500X-0.150000X-0.512500X0*%
G04 #@! TD*
G04 #@! TA.AperFunction,SMDPad,CuDef*
%ADD23RoundRect,0.150000X-0.150000X0.512500X-0.150000X-0.512500X0.150000X-0.512500X0.150000X0.512500X0*%
G04 #@! TD*
G04 #@! TA.AperFunction,SMDPad,CuDef*
%ADD24RoundRect,0.100000X-0.637500X-0.100000X0.637500X-0.100000X0.637500X0.100000X-0.637500X0.100000X0*%
G04 #@! TD*
G04 #@! TA.AperFunction,SMDPad,CuDef*
%ADD25RoundRect,0.200000X0.275000X-0.200000X0.275000X0.200000X-0.275000X0.200000X-0.275000X-0.200000X0*%
G04 #@! TD*
G04 #@! TA.AperFunction,ViaPad*
%ADD26C,0.609600*%
G04 #@! TD*
G04 #@! TA.AperFunction,Conductor*
%ADD27C,0.400000*%
G04 #@! TD*
G04 #@! TA.AperFunction,Conductor*
%ADD28C,0.152400*%
G04 #@! TD*
G04 #@! TA.AperFunction,Conductor*
%ADD29C,0.200000*%
G04 #@! TD*
G04 APERTURE END LIST*
D10*
X7532500Y30750000D03*
D11*
X7532500Y33250000D03*
D10*
X7532500Y39750000D03*
D11*
X7532500Y42250000D03*
D12*
X10605000Y21590000D03*
X12255000Y21590000D03*
D10*
X7532500Y21750000D03*
D11*
X7532500Y24250000D03*
D12*
X10605000Y48895000D03*
X12255000Y48895000D03*
D10*
X7532500Y48750000D03*
D11*
X7532500Y51250000D03*
D13*
X18265000Y35000000D03*
D14*
X18265000Y37000000D03*
X18265000Y39000000D03*
X18265000Y41000000D03*
X18265000Y43000000D03*
X18265000Y45000000D03*
D12*
X21400000Y23495000D03*
X23050000Y23495000D03*
D15*
X13150000Y5085000D03*
X13800000Y5085000D03*
X14450000Y5085000D03*
X15100000Y5085000D03*
X15750000Y5085000D03*
D16*
X11075000Y2425000D03*
D17*
X11962500Y5000000D03*
D18*
X13300000Y2425000D03*
D19*
X16000000Y2425000D03*
D17*
X16937500Y5000000D03*
D16*
X17825000Y2425000D03*
D20*
X21437500Y21590000D03*
X23012500Y21590000D03*
D21*
X16000000Y33160000D03*
X16000000Y31610000D03*
D22*
X13800000Y8362500D03*
X14750000Y8362500D03*
X15700000Y8362500D03*
X15700000Y10637500D03*
X14750000Y10637500D03*
X13800000Y10637500D03*
D10*
X7532500Y12750000D03*
D11*
X7532500Y15250000D03*
D23*
X20315000Y9525000D03*
X18415000Y9525000D03*
X19365000Y7250000D03*
D24*
X16187500Y29890000D03*
X16187500Y29240000D03*
X16187500Y28590000D03*
X16187500Y27940000D03*
X16187500Y27290000D03*
X16187500Y26640000D03*
X16187500Y25990000D03*
X21912500Y25990000D03*
X21912500Y26640000D03*
X21912500Y27290000D03*
X21912500Y27940000D03*
X21912500Y28590000D03*
X21912500Y29240000D03*
X21912500Y29890000D03*
D12*
X10605000Y12700000D03*
X12255000Y12700000D03*
D25*
X14250000Y35100000D03*
X14250000Y36750000D03*
D21*
X24130000Y29985000D03*
X24130000Y28435000D03*
D12*
X10605000Y40000000D03*
X12255000Y40000000D03*
X10795000Y30480000D03*
X12445000Y30480000D03*
D26*
X15875000Y54610000D03*
X15875000Y43815000D03*
X11430000Y15240000D03*
X24130000Y1905000D03*
X11430000Y54610000D03*
X2540000Y1905000D03*
X20320000Y19685000D03*
X23495000Y19685000D03*
X8255000Y9525000D03*
X25400000Y48260000D03*
X15875000Y52070000D03*
X11430000Y19685000D03*
X20955000Y48260000D03*
X11430000Y52070000D03*
X20320000Y15240000D03*
X11430000Y36195000D03*
X8255000Y6350000D03*
X11430000Y25400000D03*
X25400000Y51435000D03*
X23495000Y15240000D03*
X8255000Y1905000D03*
X24130000Y6350000D03*
X25400000Y54610000D03*
X2540000Y9525000D03*
X20955000Y54610000D03*
X20320000Y1905000D03*
X15875000Y48260000D03*
X2540000Y6350000D03*
X25400000Y36195000D03*
X19750000Y36750000D03*
X13970000Y33020000D03*
X13970000Y40005000D03*
X20320000Y29210000D03*
X15250000Y18250000D03*
X13750000Y6750000D03*
X16000000Y6750000D03*
X20332999Y28434998D03*
X16250000Y18000000D03*
X20955000Y31750000D03*
X20955000Y34925000D03*
X20320000Y34290000D03*
X19685000Y31115000D03*
X20320000Y23495000D03*
X18990329Y24824671D03*
D27*
X16346800Y31610000D02*
X17145000Y32408200D01*
X16000000Y31610000D02*
X16346800Y31610000D01*
X16187500Y29890000D02*
X16187500Y31422500D01*
X16187500Y31422500D02*
X16000000Y31610000D01*
X25400000Y36195000D02*
X25400000Y34350000D01*
X26035000Y33715000D02*
X26035000Y30480000D01*
X25400000Y34350000D02*
X26035000Y33715000D01*
X18415000Y9525000D02*
X15200001Y9525000D01*
X15200001Y9525000D02*
X14750000Y9975001D01*
X14750000Y9975001D02*
X14750000Y10637500D01*
X16000000Y6750000D02*
X18865000Y6750000D01*
X18865000Y6750000D02*
X19365000Y7250000D01*
D28*
X9652000Y4165534D02*
X10127934Y3689600D01*
X14750000Y8362500D02*
X14750000Y9024999D01*
X10127934Y3689600D02*
X15197000Y3689600D01*
X14750000Y9024999D02*
X14376999Y9398000D01*
X9652000Y5417992D02*
X9652000Y4165534D01*
X13632008Y9398000D02*
X9652000Y5417992D01*
X15750000Y4242600D02*
X15750000Y5085000D01*
X15197000Y3689600D02*
X15750000Y4242600D01*
X14376999Y9398000D02*
X13632008Y9398000D01*
D27*
X26035000Y30480000D02*
X24106800Y32408200D01*
X14000000Y36825000D02*
X18090000Y36825000D01*
X18090000Y36825000D02*
X18265000Y37000000D01*
X18265000Y37000000D02*
X19500000Y37000000D01*
X17145000Y32408200D02*
X24106800Y32408200D01*
X19500000Y37000000D02*
X19750000Y36750000D01*
X21912500Y27940000D02*
X23635000Y27940000D01*
X23635000Y27940000D02*
X24130000Y28435000D01*
D28*
X23050000Y23495000D02*
X23050000Y21627500D01*
X23050000Y21627500D02*
X23012500Y21590000D01*
X12255000Y17335000D02*
X20910000Y25990000D01*
X20910000Y25990000D02*
X21912500Y25990000D01*
X12255000Y12700000D02*
X12255000Y17335000D01*
X16187500Y25990000D02*
X12255000Y22057500D01*
X12255000Y22057500D02*
X12255000Y21590000D01*
X12445000Y29645001D02*
X15450001Y26640000D01*
X15450001Y26640000D02*
X16187500Y26640000D01*
X12445000Y30480000D02*
X12445000Y29645001D01*
X16187500Y27290000D02*
X15450001Y27290000D01*
X13074600Y39180400D02*
X12255000Y40000000D01*
X13074600Y29665401D02*
X13074600Y39180400D01*
X15450001Y27290000D02*
X13074600Y29665401D01*
X16187500Y28590000D02*
X15450001Y28590000D01*
X13970000Y40640000D02*
X12255000Y42355000D01*
X15450001Y28590000D02*
X13970000Y30070001D01*
X12255000Y42355000D02*
X12255000Y48895000D01*
X13970000Y30070001D02*
X13970000Y33020000D01*
X13970000Y40005000D02*
X13970000Y40640000D01*
D29*
X13970000Y10807500D02*
X13970000Y11557000D01*
X14351000Y11938000D02*
X15100500Y11938000D01*
X15240000Y18240000D02*
X15250000Y18250000D01*
X13800000Y10637500D02*
X13970000Y10807500D01*
X20350000Y29240000D02*
X20320000Y29210000D01*
X21912500Y29240000D02*
X20350000Y29240000D01*
X15240000Y12077500D02*
X15240000Y18240000D01*
X13970000Y11557000D02*
X14351000Y11938000D01*
X15100500Y11938000D02*
X15240000Y12077500D01*
D27*
X13150000Y5085000D02*
X13150000Y6150000D01*
X13150000Y6150000D02*
X13750000Y6750000D01*
D29*
X20320000Y28575000D02*
X20332999Y28562001D01*
X15700000Y10637500D02*
X15700000Y17450000D01*
X15700000Y17450000D02*
X16250000Y18000000D01*
X20335000Y28590000D02*
X20320000Y28575000D01*
X20332999Y28562001D02*
X20332999Y28434998D01*
X21912500Y28590000D02*
X20335000Y28590000D01*
D28*
X19150600Y31336356D02*
X19564244Y31750000D01*
X19564244Y31750000D02*
X20955000Y31750000D01*
X20955000Y40310000D02*
X18265000Y43000000D01*
X20955000Y34925000D02*
X20955000Y40310000D01*
X21912500Y26640000D02*
X20350000Y26640000D01*
X19150600Y27839400D02*
X19150600Y31336356D01*
X20350000Y26640000D02*
X19150600Y27839400D01*
X18265000Y41000000D02*
X20320000Y38945000D01*
X20320000Y38945000D02*
X20320000Y34290000D01*
X19685000Y31115000D02*
X19685000Y28327241D01*
X19685000Y28327241D02*
X20722241Y27290000D01*
X20722241Y27290000D02*
X21912500Y27290000D01*
X14175000Y35000000D02*
X14000000Y35175000D01*
X13435600Y29954401D02*
X13435600Y34610600D01*
X16187500Y27940000D02*
X15450001Y27940000D01*
X13435600Y34610600D02*
X14000000Y35175000D01*
X18265000Y35000000D02*
X14175000Y35000000D01*
X15450001Y27940000D02*
X13435600Y29954401D01*
X10555000Y12750000D02*
X10605000Y12700000D01*
X7532500Y12750000D02*
X10555000Y12750000D01*
X10445000Y21750000D02*
X10605000Y21590000D01*
X7532500Y21750000D02*
X10445000Y21750000D01*
X7532500Y30750000D02*
X10525000Y30750000D01*
X10525000Y30750000D02*
X10795000Y30480000D01*
X10355000Y39750000D02*
X10605000Y40000000D01*
X7532500Y39750000D02*
X10355000Y39750000D01*
X7532500Y48750000D02*
X10460000Y48750000D01*
X10460000Y48750000D02*
X10605000Y48895000D01*
X19050000Y24765000D02*
X18990329Y24824671D01*
X16187500Y29240000D02*
X16924999Y29240000D01*
X19050000Y27114999D02*
X19050000Y24765000D01*
X20320000Y23495000D02*
X21400000Y23495000D01*
X16924999Y29240000D02*
X19050000Y27114999D01*
X14202800Y3995400D02*
X10254600Y3995400D01*
X10250000Y4000000D02*
X10250000Y5250000D01*
X10254600Y3995400D02*
X10250000Y4000000D01*
X13362500Y8362500D02*
X13800000Y8362500D01*
X10250000Y5250000D02*
X13362500Y8362500D01*
X14450000Y5085000D02*
X14450000Y4242600D01*
X14450000Y4242600D02*
X14202800Y3995400D01*
X13800000Y5085000D02*
X13800000Y5927400D01*
X15700000Y7827400D02*
X15700000Y8362500D01*
X13800000Y5927400D02*
X15700000Y7827400D01*
D27*
X26035000Y15240000D02*
X26035000Y30480000D01*
X26035000Y15240000D02*
X24651428Y15240000D01*
X18936428Y9525000D02*
X18415000Y9525000D01*
X24651428Y15240000D02*
X18936428Y9525000D01*
G04 #@! TA.AperFunction,Conductor*
G36*
X26442121Y55479998D02*
G01*
X26488614Y55426342D01*
X26500000Y55374000D01*
X26500000Y34332716D01*
X26479998Y34264595D01*
X26426342Y34218102D01*
X26356068Y34207998D01*
X26291488Y34237492D01*
X26284905Y34243621D01*
X26071905Y34456621D01*
X26056802Y34474872D01*
X26035000Y34506939D01*
X26035000Y34544000D01*
X26009802Y34544000D01*
X25972302Y34599156D01*
X25968981Y34609470D01*
X25961886Y34617658D01*
X25952601Y34660341D01*
X25950542Y34666736D01*
X25950909Y34668119D01*
X25950500Y34670000D01*
X25950500Y35801151D01*
X25970502Y35869272D01*
X25971688Y35871084D01*
X25980720Y35884599D01*
X26030117Y36003856D01*
X26055300Y36130459D01*
X26055300Y36259541D01*
X26030117Y36386144D01*
X25980720Y36505401D01*
X25909005Y36612730D01*
X25817730Y36704005D01*
X25710401Y36775720D01*
X25591144Y36825117D01*
X25464543Y36850300D01*
X25464541Y36850300D01*
X25335459Y36850300D01*
X25335456Y36850300D01*
X25208855Y36825117D01*
X25208850Y36825115D01*
X25089597Y36775719D01*
X24982274Y36704008D01*
X24982267Y36704003D01*
X24890997Y36612733D01*
X24890992Y36612726D01*
X24819281Y36505403D01*
X24769885Y36386150D01*
X24769883Y36386145D01*
X24744700Y36259544D01*
X24744700Y36130457D01*
X24769883Y36003856D01*
X24769885Y36003850D01*
X24786310Y35964197D01*
X24819280Y35884599D01*
X24828264Y35871153D01*
X24849480Y35803403D01*
X24849500Y35801151D01*
X24849500Y34670000D01*
X24829498Y34601879D01*
X24775842Y34555386D01*
X24723500Y34544000D01*
X24511000Y34544000D01*
X24511000Y33028737D01*
X24490998Y32960616D01*
X24437342Y32914123D01*
X24367068Y32904019D01*
X24348710Y32908076D01*
X24334680Y32912296D01*
X24319285Y32921184D01*
X24191370Y32955459D01*
X24189528Y32955953D01*
X24189510Y32955958D01*
X24179276Y32958700D01*
X24179275Y32958700D01*
X17072525Y32958700D01*
X16932515Y32921184D01*
X16932513Y32921184D01*
X16932509Y32921182D01*
X16924883Y32918023D01*
X16924127Y32919846D01*
X16872454Y32906000D01*
X15017000Y32906000D01*
X15017000Y32886148D01*
X15027955Y32778923D01*
X15025099Y32778632D01*
X15024390Y32769148D01*
X15027565Y32747068D01*
X15021795Y32734435D01*
X15020760Y32720587D01*
X15007336Y32702776D01*
X14998071Y32682488D01*
X14986388Y32674981D01*
X14978030Y32663889D01*
X14957107Y32656163D01*
X14938345Y32644104D01*
X14915602Y32640835D01*
X14911430Y32639293D01*
X14902847Y32639000D01*
X14710049Y32639000D01*
X14641928Y32659002D01*
X14595435Y32712658D01*
X14585331Y32782932D01*
X14593639Y32813216D01*
X14594721Y32815830D01*
X14600117Y32828856D01*
X14625300Y32955459D01*
X14625300Y33084541D01*
X14600117Y33211144D01*
X14550720Y33330401D01*
X14481596Y33433853D01*
X15017000Y33433853D01*
X15017000Y33414000D01*
X15746000Y33414000D01*
X16254000Y33414000D01*
X16983000Y33414000D01*
X16983000Y33433853D01*
X16972744Y33534230D01*
X16972742Y33534242D01*
X16918847Y33696885D01*
X16828890Y33842729D01*
X16828885Y33842735D01*
X16707734Y33963886D01*
X16707728Y33963891D01*
X16561884Y34053848D01*
X16399241Y34107743D01*
X16399229Y34107745D01*
X16298852Y34118000D01*
X16254000Y34118000D01*
X16254000Y33414000D01*
X15746000Y33414000D01*
X15746000Y34118000D01*
X15701147Y34118000D01*
X15600770Y34107745D01*
X15600758Y34107743D01*
X15438115Y34053848D01*
X15292271Y33963891D01*
X15292265Y33963886D01*
X15171114Y33842735D01*
X15171109Y33842729D01*
X15081152Y33696885D01*
X15027257Y33534242D01*
X15027255Y33534230D01*
X15017000Y33433853D01*
X14481596Y33433853D01*
X14479005Y33437730D01*
X14387730Y33529005D01*
X14280401Y33600720D01*
X14174045Y33644774D01*
X14161149Y33650115D01*
X14161144Y33650117D01*
X14034543Y33675300D01*
X14034541Y33675300D01*
X13988300Y33675300D01*
X13920179Y33695302D01*
X13873686Y33748958D01*
X13862300Y33801300D01*
X13862300Y34223500D01*
X13882302Y34291621D01*
X13935958Y34338114D01*
X13988300Y34349500D01*
X14568099Y34349500D01*
X14568102Y34349500D01*
X14656564Y34360123D01*
X14797342Y34415639D01*
X14917922Y34507078D01*
X14930326Y34523435D01*
X14987426Y34565627D01*
X15030723Y34573300D01*
X17113500Y34573300D01*
X17181621Y34553298D01*
X17228114Y34499642D01*
X17239500Y34447300D01*
X17239500Y34291739D01*
X17249427Y34223606D01*
X17300801Y34118518D01*
X17300803Y34118515D01*
X17383514Y34035804D01*
X17383517Y34035802D01*
X17488607Y33984427D01*
X17556740Y33974500D01*
X17556745Y33974500D01*
X18973255Y33974500D01*
X18973260Y33974500D01*
X19041393Y33984427D01*
X19120701Y34023199D01*
X19176038Y34036000D01*
X19634246Y34036000D01*
X19702367Y34015998D01*
X19739011Y33980002D01*
X19739279Y33979601D01*
X19739280Y33979599D01*
X19810995Y33872270D01*
X19902270Y33780995D01*
X20009599Y33709280D01*
X20128856Y33659883D01*
X20255459Y33634700D01*
X20255460Y33634700D01*
X20384540Y33634700D01*
X20384541Y33634700D01*
X20511144Y33659883D01*
X20630401Y33709280D01*
X20737730Y33780995D01*
X20829005Y33872270D01*
X20900720Y33979599D01*
X20950117Y34098856D01*
X20966215Y34179790D01*
X20999123Y34242697D01*
X21060818Y34277829D01*
X21065188Y34278780D01*
X21146144Y34294883D01*
X21265401Y34344280D01*
X21372730Y34415995D01*
X21464005Y34507270D01*
X21535720Y34614599D01*
X21585117Y34733856D01*
X21610300Y34860459D01*
X21610300Y34989541D01*
X21585117Y35116144D01*
X21535720Y35235401D01*
X21464005Y35342730D01*
X21418605Y35388130D01*
X21384579Y35450442D01*
X21381700Y35477225D01*
X21381700Y40366175D01*
X21375488Y40389360D01*
X21352621Y40474700D01*
X21329790Y40514244D01*
X21296447Y40571997D01*
X21296443Y40572002D01*
X21284856Y40583589D01*
X21217000Y40651445D01*
X19284856Y42583589D01*
X19250830Y42645901D01*
X19250372Y42697266D01*
X19251088Y42700866D01*
X19251091Y42700873D01*
X19290500Y42898997D01*
X19290500Y43101003D01*
X19251091Y43299127D01*
X19173786Y43485756D01*
X19061558Y43653718D01*
X18918718Y43796558D01*
X18771035Y43895236D01*
X18725508Y43949712D01*
X18716660Y44020155D01*
X18747301Y44084199D01*
X18771033Y44104764D01*
X18918718Y44203442D01*
X19061558Y44346282D01*
X19173786Y44514244D01*
X19251091Y44700873D01*
X19290500Y44898997D01*
X19290500Y45101003D01*
X19251091Y45299127D01*
X19173786Y45485756D01*
X19061558Y45653718D01*
X18918718Y45796558D01*
X18750756Y45908786D01*
X18618793Y45963447D01*
X18564130Y45986090D01*
X18564128Y45986091D01*
X18564127Y45986091D01*
X18464394Y46005929D01*
X18366005Y46025500D01*
X18366003Y46025500D01*
X18163997Y46025500D01*
X18163994Y46025500D01*
X18016410Y45996144D01*
X17965873Y45986091D01*
X17965872Y45986091D01*
X17965869Y45986090D01*
X17779242Y45908785D01*
X17611283Y45796559D01*
X17611277Y45796554D01*
X17468446Y45653723D01*
X17468441Y45653717D01*
X17356215Y45485758D01*
X17278910Y45299131D01*
X17239500Y45101006D01*
X17239500Y45101003D01*
X17239500Y44898997D01*
X17278909Y44700873D01*
X17356214Y44514244D01*
X17468442Y44346282D01*
X17611282Y44203442D01*
X17718049Y44132103D01*
X17758963Y44104765D01*
X17804491Y44050288D01*
X17813339Y43979845D01*
X17782697Y43915801D01*
X17758963Y43895235D01*
X17611283Y43796559D01*
X17611277Y43796554D01*
X17468446Y43653723D01*
X17468441Y43653717D01*
X17356215Y43485758D01*
X17278910Y43299131D01*
X17239500Y43101006D01*
X17239500Y43101003D01*
X17239500Y42898997D01*
X17278909Y42700873D01*
X17356214Y42514244D01*
X17468442Y42346282D01*
X17611282Y42203442D01*
X17640119Y42184174D01*
X17758963Y42104765D01*
X17804491Y42050288D01*
X17813339Y41979845D01*
X17782697Y41915801D01*
X17758963Y41895235D01*
X17611283Y41796559D01*
X17611277Y41796554D01*
X17468446Y41653723D01*
X17468441Y41653717D01*
X17356215Y41485758D01*
X17278910Y41299131D01*
X17239500Y41101006D01*
X17239500Y40898995D01*
X17278910Y40700870D01*
X17280855Y40696175D01*
X17356214Y40514244D01*
X17468442Y40346282D01*
X17611282Y40203442D01*
X17615926Y40200339D01*
X17661453Y40145862D01*
X17670300Y40075418D01*
X17639658Y40011375D01*
X17626207Y39999250D01*
X17626116Y39998095D01*
X18224210Y39400000D01*
X18212339Y39400000D01*
X18110606Y39372741D01*
X18019394Y39320080D01*
X17944920Y39245606D01*
X17892259Y39154394D01*
X17865000Y39052661D01*
X17865000Y39040790D01*
X17266906Y39638884D01*
X17253210Y39620032D01*
X17253210Y39620030D01*
X17168670Y39454113D01*
X17111130Y39277024D01*
X17082000Y39093101D01*
X17082000Y38906900D01*
X17111130Y38722977D01*
X17168670Y38545888D01*
X17253208Y38379973D01*
X17266905Y38361119D01*
X17865000Y38959213D01*
X17865000Y38947339D01*
X17892259Y38845606D01*
X17944920Y38754394D01*
X18019394Y38679920D01*
X18110606Y38627259D01*
X18212339Y38600000D01*
X18224209Y38600000D01*
X17626116Y38001908D01*
X17626423Y37998012D01*
X17663338Y37950143D01*
X17669415Y37879407D01*
X17636285Y37816614D01*
X17615934Y37799667D01*
X17611282Y37796558D01*
X17611281Y37796557D01*
X17611277Y37796554D01*
X17468446Y37653723D01*
X17468441Y37653717D01*
X17356214Y37485757D01*
X17356214Y37485756D01*
X17347617Y37465000D01*
X17342763Y37453282D01*
X17298215Y37398001D01*
X17230851Y37375580D01*
X17226354Y37375500D01*
X14917334Y37375500D01*
X14849213Y37395502D01*
X14841201Y37401102D01*
X14797341Y37434362D01*
X14656564Y37489878D01*
X14656565Y37489878D01*
X14568105Y37500500D01*
X14568102Y37500500D01*
X13931898Y37500500D01*
X13931894Y37500500D01*
X13843435Y37489878D01*
X13702658Y37434362D01*
X13695144Y37430136D01*
X13694374Y37431505D01*
X13637056Y37409726D01*
X13567591Y37424394D01*
X13517083Y37474288D01*
X13501300Y37535348D01*
X13501300Y39236575D01*
X13501299Y39236579D01*
X13500210Y39240642D01*
X13491092Y39274673D01*
X13492781Y39345650D01*
X13532575Y39404446D01*
X13597839Y39432394D01*
X13661012Y39423695D01*
X13778856Y39374883D01*
X13905459Y39349700D01*
X13905460Y39349700D01*
X14034540Y39349700D01*
X14034541Y39349700D01*
X14161144Y39374883D01*
X14280401Y39424280D01*
X14387730Y39495995D01*
X14479005Y39587270D01*
X14550720Y39694599D01*
X14600117Y39813856D01*
X14625300Y39940459D01*
X14625300Y40069541D01*
X14600117Y40196144D01*
X14550720Y40315401D01*
X14479005Y40422730D01*
X14433605Y40468130D01*
X14399579Y40530442D01*
X14396700Y40557225D01*
X14396700Y40696175D01*
X14379770Y40759359D01*
X14367621Y40804700D01*
X14311445Y40902000D01*
X14232000Y40981445D01*
X12718605Y42494840D01*
X12684579Y42557152D01*
X12681700Y42583935D01*
X12681700Y48038446D01*
X12701702Y48106567D01*
X12731563Y48138841D01*
X12847922Y48227078D01*
X12939361Y48347658D01*
X12994877Y48488436D01*
X13005500Y48576898D01*
X13005500Y49213102D01*
X12994877Y49301564D01*
X12994876Y49301566D01*
X12939361Y49442342D01*
X12939358Y49442346D01*
X12847922Y49562923D01*
X12727345Y49654359D01*
X12727341Y49654362D01*
X12586564Y49709878D01*
X12586565Y49709878D01*
X12498105Y49720500D01*
X12498102Y49720500D01*
X12011898Y49720500D01*
X12011894Y49720500D01*
X11923435Y49709878D01*
X11782658Y49654362D01*
X11782654Y49654359D01*
X11662077Y49562923D01*
X11570641Y49442346D01*
X11570640Y49442344D01*
X11570639Y49442343D01*
X11570639Y49442342D01*
X11547215Y49382943D01*
X11503616Y49326910D01*
X11436645Y49303343D01*
X11367565Y49319725D01*
X11318307Y49370854D01*
X11312785Y49382943D01*
X11289361Y49442342D01*
X11289358Y49442346D01*
X11197922Y49562923D01*
X11077345Y49654359D01*
X11077341Y49654362D01*
X10936564Y49709878D01*
X10936565Y49709878D01*
X10848105Y49720500D01*
X10848102Y49720500D01*
X10361898Y49720500D01*
X10361894Y49720500D01*
X10273435Y49709878D01*
X10132658Y49654362D01*
X10132654Y49654359D01*
X10012077Y49562923D01*
X9920641Y49442346D01*
X9920638Y49442342D01*
X9865122Y49301566D01*
X9863455Y49287676D01*
X9835473Y49222426D01*
X9776657Y49182663D01*
X9738354Y49176700D01*
X9008999Y49176700D01*
X8940878Y49196702D01*
X8894385Y49250358D01*
X8882999Y49302700D01*
X8882999Y49389361D01*
X8882998Y49389369D01*
X8880828Y49405847D01*
X8867544Y49506762D01*
X8807036Y49652841D01*
X8710782Y49778282D01*
X8585341Y49874536D01*
X8483900Y49916554D01*
X8428622Y49961102D01*
X8406201Y50028465D01*
X8423759Y50097256D01*
X8458060Y50134898D01*
X8567179Y50214179D01*
X8567182Y50214181D01*
X8718322Y50365321D01*
X8843963Y50538250D01*
X8941006Y50728708D01*
X8941009Y50728714D01*
X9007059Y50931996D01*
X9017198Y50996000D01*
X7963203Y50996000D01*
X7998425Y51057007D01*
X8016528Y51124568D01*
X20099500Y51124568D01*
X20099500Y50875433D01*
X20132016Y50628442D01*
X20132018Y50628435D01*
X20196498Y50387793D01*
X20291836Y50157627D01*
X20291837Y50157626D01*
X20291842Y50157615D01*
X20416398Y49941877D01*
X20416400Y49941874D01*
X20416401Y49941873D01*
X20568062Y49744224D01*
X20568066Y49744220D01*
X20568071Y49744214D01*
X20744213Y49568072D01*
X20744218Y49568068D01*
X20744224Y49568062D01*
X20908066Y49442342D01*
X20941876Y49416399D01*
X21157614Y49291843D01*
X21157618Y49291842D01*
X21157627Y49291836D01*
X21387793Y49196498D01*
X21628435Y49132018D01*
X21628439Y49132018D01*
X21628441Y49132017D01*
X21692099Y49123637D01*
X21875435Y49099500D01*
X21875442Y49099500D01*
X22124558Y49099500D01*
X22124565Y49099500D01*
X22347790Y49128889D01*
X22371558Y49132017D01*
X22371558Y49132018D01*
X22371565Y49132018D01*
X22612207Y49196498D01*
X22842373Y49291836D01*
X23058127Y49416401D01*
X23255776Y49568062D01*
X23431938Y49744224D01*
X23583599Y49941873D01*
X23708164Y50157627D01*
X23803502Y50387793D01*
X23867982Y50628435D01*
X23900500Y50875435D01*
X23900500Y51124565D01*
X23867982Y51371565D01*
X23803502Y51612207D01*
X23708164Y51842373D01*
X23708158Y51842382D01*
X23708157Y51842386D01*
X23583601Y52058124D01*
X23583599Y52058127D01*
X23431938Y52255776D01*
X23431932Y52255782D01*
X23431928Y52255787D01*
X23255786Y52431929D01*
X23255780Y52431934D01*
X23255776Y52431938D01*
X23058127Y52583599D01*
X23058126Y52583600D01*
X23058123Y52583602D01*
X22842385Y52708158D01*
X22842377Y52708162D01*
X22842373Y52708164D01*
X22612207Y52803502D01*
X22371565Y52867982D01*
X22371558Y52867984D01*
X22124567Y52900500D01*
X22124565Y52900500D01*
X21875435Y52900500D01*
X21875432Y52900500D01*
X21628441Y52867984D01*
X21387797Y52803503D01*
X21387793Y52803502D01*
X21157625Y52708163D01*
X21157614Y52708158D01*
X20941876Y52583602D01*
X20744224Y52431938D01*
X20744213Y52431929D01*
X20568071Y52255787D01*
X20568062Y52255776D01*
X20416398Y52058124D01*
X20291842Y51842386D01*
X20291837Y51842375D01*
X20291836Y51842373D01*
X20212193Y51650099D01*
X20196498Y51612207D01*
X20196497Y51612203D01*
X20132016Y51371559D01*
X20099500Y51124568D01*
X8016528Y51124568D01*
X8032500Y51184174D01*
X8032500Y51315826D01*
X7998425Y51442993D01*
X7963203Y51504000D01*
X9017197Y51504000D01*
X9007059Y51568005D01*
X8941009Y51771287D01*
X8941006Y51771293D01*
X8843963Y51961751D01*
X8718322Y52134680D01*
X8567179Y52285823D01*
X8394250Y52411464D01*
X8203792Y52508507D01*
X8203786Y52508510D01*
X8000503Y52574560D01*
X7789374Y52608000D01*
X7786500Y52608000D01*
X7786500Y51680703D01*
X7725493Y51715925D01*
X7598326Y51750000D01*
X7466674Y51750000D01*
X7339507Y51715925D01*
X7278500Y51680703D01*
X7278500Y52608000D01*
X7275626Y52608000D01*
X7064496Y52574560D01*
X6861213Y52508510D01*
X6861207Y52508507D01*
X6670749Y52411464D01*
X6497820Y52285823D01*
X6346677Y52134680D01*
X6221036Y51961751D01*
X6123993Y51771293D01*
X6123990Y51771287D01*
X6057940Y51568005D01*
X6047802Y51504000D01*
X7101797Y51504000D01*
X7066575Y51442993D01*
X7032500Y51315826D01*
X7032500Y51184174D01*
X7066575Y51057007D01*
X7101797Y50996000D01*
X6047802Y50996000D01*
X6057940Y50931996D01*
X6123990Y50728714D01*
X6123993Y50728708D01*
X6221036Y50538250D01*
X6346677Y50365321D01*
X6497820Y50214178D01*
X6606939Y50134898D01*
X6650293Y50078675D01*
X6656368Y50007939D01*
X6623236Y49945147D01*
X6581097Y49916554D01*
X6479664Y49874539D01*
X6479657Y49874535D01*
X6354218Y49778282D01*
X6257965Y49652843D01*
X6257963Y49652840D01*
X6197455Y49506761D01*
X6182000Y49389364D01*
X6182000Y48110641D01*
X6182001Y48110632D01*
X6194365Y48016719D01*
X6197456Y47993238D01*
X6257964Y47847159D01*
X6354218Y47721718D01*
X6479659Y47625464D01*
X6625738Y47564956D01*
X6743139Y47549500D01*
X8321860Y47549501D01*
X8439262Y47564956D01*
X8585341Y47625464D01*
X8710782Y47721718D01*
X8807036Y47847159D01*
X8867544Y47993238D01*
X8883000Y48110639D01*
X8883000Y48197300D01*
X8903002Y48265421D01*
X8956658Y48311914D01*
X9009000Y48323300D01*
X9876528Y48323300D01*
X9944649Y48303298D01*
X9976924Y48273435D01*
X10012077Y48227079D01*
X10012078Y48227078D01*
X10132654Y48135642D01*
X10132658Y48135639D01*
X10273435Y48080123D01*
X10273434Y48080123D01*
X10301394Y48076766D01*
X10361898Y48069500D01*
X10361901Y48069500D01*
X10848099Y48069500D01*
X10848102Y48069500D01*
X10936564Y48080123D01*
X11077342Y48135639D01*
X11197922Y48227078D01*
X11289361Y48347658D01*
X11312785Y48407058D01*
X11356383Y48463090D01*
X11423354Y48486658D01*
X11492435Y48470277D01*
X11541693Y48419148D01*
X11547215Y48407057D01*
X11570638Y48347659D01*
X11570641Y48347655D01*
X11604278Y48303298D01*
X11662078Y48227078D01*
X11778434Y48138842D01*
X11820627Y48081745D01*
X11828300Y48038446D01*
X11828300Y42411176D01*
X11828300Y42298824D01*
X11849586Y42219382D01*
X11857378Y42190303D01*
X11857381Y42190296D01*
X11913552Y42093004D01*
X11913554Y42093002D01*
X11913555Y42093000D01*
X12663096Y41343459D01*
X12697120Y41281148D01*
X12700000Y41254365D01*
X12700000Y40943291D01*
X12679998Y40875170D01*
X12626342Y40828677D01*
X12558978Y40818190D01*
X12498107Y40825500D01*
X12498102Y40825500D01*
X12011898Y40825500D01*
X12011894Y40825500D01*
X11923435Y40814878D01*
X11782658Y40759362D01*
X11782654Y40759359D01*
X11662077Y40667923D01*
X11570641Y40547346D01*
X11570640Y40547344D01*
X11570639Y40547343D01*
X11570639Y40547342D01*
X11554636Y40506762D01*
X11547215Y40487943D01*
X11503616Y40431910D01*
X11436645Y40408343D01*
X11367565Y40424725D01*
X11318307Y40475854D01*
X11312785Y40487943D01*
X11289361Y40547342D01*
X11289358Y40547346D01*
X11197922Y40667923D01*
X11077345Y40759359D01*
X11077341Y40759362D01*
X10936564Y40814878D01*
X10936565Y40814878D01*
X10848105Y40825500D01*
X10848102Y40825500D01*
X10361898Y40825500D01*
X10361894Y40825500D01*
X10273435Y40814878D01*
X10132658Y40759362D01*
X10132654Y40759359D01*
X10012077Y40667923D01*
X9920641Y40547346D01*
X9920638Y40547342D01*
X9865122Y40406565D01*
X9854500Y40318106D01*
X9854500Y40302700D01*
X9834498Y40234579D01*
X9780842Y40188086D01*
X9728500Y40176700D01*
X9008999Y40176700D01*
X8940878Y40196702D01*
X8894385Y40250358D01*
X8882999Y40302700D01*
X8882999Y40389361D01*
X8882998Y40389369D01*
X8880500Y40408343D01*
X8867544Y40506762D01*
X8807036Y40652841D01*
X8710782Y40778282D01*
X8585341Y40874536D01*
X8483900Y40916554D01*
X8428622Y40961102D01*
X8406201Y41028465D01*
X8423759Y41097256D01*
X8458060Y41134898D01*
X8567179Y41214179D01*
X8567182Y41214181D01*
X8718322Y41365321D01*
X8843963Y41538250D01*
X8941006Y41728708D01*
X8941009Y41728714D01*
X9007059Y41931996D01*
X9017198Y41996000D01*
X7963203Y41996000D01*
X7998425Y42057007D01*
X8032500Y42184174D01*
X8032500Y42315826D01*
X7998425Y42442993D01*
X7963203Y42504000D01*
X9017197Y42504000D01*
X9007059Y42568005D01*
X8941009Y42771287D01*
X8941006Y42771293D01*
X8843963Y42961751D01*
X8718322Y43134680D01*
X8567179Y43285823D01*
X8394250Y43411464D01*
X8203792Y43508507D01*
X8203786Y43508510D01*
X8000503Y43574560D01*
X7789374Y43608000D01*
X7786500Y43608000D01*
X7786500Y42680703D01*
X7725493Y42715925D01*
X7598326Y42750000D01*
X7466674Y42750000D01*
X7339507Y42715925D01*
X7278500Y42680703D01*
X7278500Y43608000D01*
X7275626Y43608000D01*
X7064496Y43574560D01*
X6861213Y43508510D01*
X6861207Y43508507D01*
X6670749Y43411464D01*
X6497820Y43285823D01*
X6346677Y43134680D01*
X6221036Y42961751D01*
X6123993Y42771293D01*
X6123990Y42771287D01*
X6057940Y42568005D01*
X6047802Y42504000D01*
X7101797Y42504000D01*
X7066575Y42442993D01*
X7032500Y42315826D01*
X7032500Y42184174D01*
X7066575Y42057007D01*
X7101797Y41996000D01*
X6047802Y41996000D01*
X6057940Y41931996D01*
X6123990Y41728714D01*
X6123993Y41728708D01*
X6221036Y41538250D01*
X6346677Y41365321D01*
X6497820Y41214178D01*
X6606939Y41134898D01*
X6650293Y41078675D01*
X6656368Y41007939D01*
X6623236Y40945147D01*
X6581097Y40916554D01*
X6479664Y40874539D01*
X6479657Y40874535D01*
X6354218Y40778282D01*
X6257965Y40652843D01*
X6257963Y40652840D01*
X6197455Y40506761D01*
X6182000Y40389364D01*
X6182000Y39110641D01*
X6182001Y39110632D01*
X6189633Y39052661D01*
X6197456Y38993238D01*
X6257964Y38847159D01*
X6354218Y38721718D01*
X6479659Y38625464D01*
X6625738Y38564956D01*
X6743139Y38549500D01*
X8321860Y38549501D01*
X8439262Y38564956D01*
X8585341Y38625464D01*
X8710782Y38721718D01*
X8807036Y38847159D01*
X8867544Y38993238D01*
X8883000Y39110639D01*
X8883000Y39197300D01*
X8903002Y39265421D01*
X8956658Y39311914D01*
X9009000Y39323300D01*
X9981282Y39323300D01*
X10049403Y39303298D01*
X10057411Y39297701D01*
X10095654Y39268700D01*
X10132658Y39240639D01*
X10273435Y39185123D01*
X10273434Y39185123D01*
X10301394Y39181766D01*
X10361898Y39174500D01*
X10361901Y39174500D01*
X10848099Y39174500D01*
X10848102Y39174500D01*
X10936564Y39185123D01*
X11077342Y39240639D01*
X11197922Y39332078D01*
X11289361Y39452658D01*
X11312785Y39512058D01*
X11356383Y39568090D01*
X11423354Y39591658D01*
X11492435Y39575277D01*
X11541693Y39524148D01*
X11547215Y39512057D01*
X11570638Y39452659D01*
X11570641Y39452655D01*
X11662077Y39332078D01*
X11782654Y39240642D01*
X11782658Y39240639D01*
X11923435Y39185123D01*
X11923434Y39185123D01*
X11951394Y39181766D01*
X12011898Y39174500D01*
X12424865Y39174500D01*
X12454780Y39165717D01*
X12485250Y39159088D01*
X12490345Y39155274D01*
X12492986Y39154498D01*
X12513960Y39137595D01*
X12610995Y39040560D01*
X12645021Y38978248D01*
X12647900Y38951465D01*
X12647900Y31431500D01*
X12627898Y31363379D01*
X12574242Y31316886D01*
X12521900Y31305500D01*
X12201894Y31305500D01*
X12113435Y31294878D01*
X11972658Y31239362D01*
X11972654Y31239359D01*
X11852077Y31147923D01*
X11760641Y31027346D01*
X11760640Y31027344D01*
X11737215Y30967943D01*
X11693616Y30911910D01*
X11626645Y30888343D01*
X11557565Y30904725D01*
X11508307Y30955854D01*
X11502785Y30967943D01*
X11479361Y31027342D01*
X11409185Y31119883D01*
X11387922Y31147923D01*
X11267345Y31239359D01*
X11267341Y31239362D01*
X11126564Y31294878D01*
X11126565Y31294878D01*
X11038105Y31305500D01*
X11038102Y31305500D01*
X10551898Y31305500D01*
X10551894Y31305500D01*
X10463435Y31294878D01*
X10322658Y31239362D01*
X10273790Y31202303D01*
X10207425Y31177079D01*
X10197656Y31176700D01*
X9008999Y31176700D01*
X8940878Y31196702D01*
X8894385Y31250358D01*
X8882999Y31302700D01*
X8882999Y31389361D01*
X8882998Y31389369D01*
X8880828Y31405847D01*
X8867544Y31506762D01*
X8807036Y31652841D01*
X8710782Y31778282D01*
X8585341Y31874536D01*
X8483900Y31916554D01*
X8428622Y31961102D01*
X8406201Y32028465D01*
X8423759Y32097256D01*
X8458060Y32134898D01*
X8567179Y32214179D01*
X8567182Y32214181D01*
X8718322Y32365321D01*
X8843963Y32538250D01*
X8941006Y32728708D01*
X8941009Y32728714D01*
X9007059Y32931996D01*
X9017198Y32996000D01*
X7963203Y32996000D01*
X7998425Y33057007D01*
X8032500Y33184174D01*
X8032500Y33315826D01*
X7998425Y33442993D01*
X7963203Y33504000D01*
X9017197Y33504000D01*
X9007059Y33568005D01*
X8941009Y33771287D01*
X8941006Y33771293D01*
X8843963Y33961751D01*
X8718322Y34134680D01*
X8567179Y34285823D01*
X8394250Y34411464D01*
X8203792Y34508507D01*
X8203786Y34508510D01*
X8000503Y34574560D01*
X7789374Y34608000D01*
X7786500Y34608000D01*
X7786500Y33680703D01*
X7725493Y33715925D01*
X7598326Y33750000D01*
X7466674Y33750000D01*
X7339507Y33715925D01*
X7278500Y33680703D01*
X7278500Y34608000D01*
X7275626Y34608000D01*
X7064496Y34574560D01*
X6861213Y34508510D01*
X6861207Y34508507D01*
X6670749Y34411464D01*
X6497820Y34285823D01*
X6346677Y34134680D01*
X6221036Y33961751D01*
X6123993Y33771293D01*
X6123990Y33771287D01*
X6057940Y33568005D01*
X6047802Y33504000D01*
X7101797Y33504000D01*
X7066575Y33442993D01*
X7032500Y33315826D01*
X7032500Y33184174D01*
X7066575Y33057007D01*
X7101797Y32996000D01*
X6047802Y32996000D01*
X6057940Y32931996D01*
X6123990Y32728714D01*
X6123993Y32728708D01*
X6221036Y32538250D01*
X6346677Y32365321D01*
X6497820Y32214178D01*
X6606939Y32134898D01*
X6650293Y32078675D01*
X6656368Y32007939D01*
X6623236Y31945147D01*
X6581097Y31916554D01*
X6479664Y31874539D01*
X6479657Y31874535D01*
X6354218Y31778282D01*
X6257965Y31652843D01*
X6257963Y31652840D01*
X6197455Y31506761D01*
X6182000Y31389364D01*
X6182000Y30110641D01*
X6182001Y30110632D01*
X6194365Y30016719D01*
X6197456Y29993238D01*
X6224959Y29926841D01*
X6250670Y29864767D01*
X6257964Y29847159D01*
X6354218Y29721718D01*
X6479659Y29625464D01*
X6625738Y29564956D01*
X6743139Y29549500D01*
X8321860Y29549501D01*
X8439262Y29564956D01*
X8585341Y29625464D01*
X8710782Y29721718D01*
X8807036Y29847159D01*
X8867544Y29993238D01*
X8883000Y30110639D01*
X8883000Y30197300D01*
X8903002Y30265421D01*
X8956658Y30311914D01*
X9009000Y30323300D01*
X9918500Y30323300D01*
X9986621Y30303298D01*
X10033114Y30249642D01*
X10044500Y30197300D01*
X10044500Y30161895D01*
X10055122Y30073436D01*
X10110638Y29932659D01*
X10110641Y29932655D01*
X10202077Y29812078D01*
X10322654Y29720642D01*
X10322658Y29720639D01*
X10463435Y29665123D01*
X10463434Y29665123D01*
X10488193Y29662150D01*
X10551898Y29654500D01*
X10551901Y29654500D01*
X11038099Y29654500D01*
X11038102Y29654500D01*
X11126564Y29665123D01*
X11267342Y29720639D01*
X11387922Y29812078D01*
X11479361Y29932658D01*
X11502785Y29992058D01*
X11546383Y30048090D01*
X11613354Y30071658D01*
X11682435Y30055277D01*
X11731693Y30004148D01*
X11737215Y29992057D01*
X11760638Y29932659D01*
X11760641Y29932655D01*
X11825475Y29847159D01*
X11852078Y29812078D01*
X11968434Y29723842D01*
X12010627Y29666745D01*
X12018300Y29623446D01*
X12018300Y29588825D01*
X12024696Y29564956D01*
X12047378Y29480304D01*
X12047381Y29480297D01*
X12103552Y29383005D01*
X12103560Y29382995D01*
X15100677Y26385879D01*
X15134703Y26323567D01*
X15130511Y26255169D01*
X15102355Y26174705D01*
X15102354Y26174701D01*
X15099500Y26144267D01*
X15099500Y25835734D01*
X15102354Y25805300D01*
X15102355Y25805296D01*
X15150325Y25668205D01*
X15148767Y25667661D01*
X15160764Y25608655D01*
X15135049Y25542479D01*
X15124314Y25530261D01*
X12040045Y22445992D01*
X11977733Y22411966D01*
X11965974Y22409986D01*
X11923438Y22404878D01*
X11923433Y22404877D01*
X11782658Y22349362D01*
X11782654Y22349359D01*
X11662077Y22257923D01*
X11570641Y22137346D01*
X11570640Y22137344D01*
X11547215Y22077943D01*
X11503616Y22021910D01*
X11436645Y21998343D01*
X11367565Y22014725D01*
X11318307Y22065854D01*
X11312785Y22077943D01*
X11289361Y22137342D01*
X11288898Y22137953D01*
X11197922Y22257923D01*
X11077345Y22349359D01*
X11077341Y22349362D01*
X10936564Y22404878D01*
X10936565Y22404878D01*
X10848105Y22415500D01*
X10848102Y22415500D01*
X10361898Y22415500D01*
X10361894Y22415500D01*
X10273435Y22404878D01*
X10132658Y22349362D01*
X10132654Y22349359D01*
X10012078Y22257923D01*
X9988301Y22226567D01*
X9931202Y22184374D01*
X9887903Y22176700D01*
X9008999Y22176700D01*
X8940878Y22196702D01*
X8894385Y22250358D01*
X8882999Y22302700D01*
X8882999Y22389361D01*
X8882998Y22389369D01*
X8878939Y22420200D01*
X8867544Y22506762D01*
X8807036Y22652841D01*
X8710782Y22778282D01*
X8585341Y22874536D01*
X8483900Y22916554D01*
X8428622Y22961102D01*
X8406201Y23028465D01*
X8423759Y23097256D01*
X8458060Y23134898D01*
X8567179Y23214179D01*
X8567182Y23214181D01*
X8718322Y23365321D01*
X8843963Y23538250D01*
X8941006Y23728708D01*
X8941009Y23728714D01*
X9007059Y23931996D01*
X9017198Y23996000D01*
X7963203Y23996000D01*
X7998425Y24057007D01*
X8032500Y24184174D01*
X8032500Y24315826D01*
X7998425Y24442993D01*
X7963203Y24504000D01*
X9017197Y24504000D01*
X9007059Y24568005D01*
X8941009Y24771287D01*
X8941006Y24771293D01*
X8843963Y24961751D01*
X8718322Y25134680D01*
X8567179Y25285823D01*
X8394250Y25411464D01*
X8203792Y25508507D01*
X8203786Y25508510D01*
X8000503Y25574560D01*
X7789374Y25608000D01*
X7786500Y25608000D01*
X7786500Y24680703D01*
X7725493Y24715925D01*
X7598326Y24750000D01*
X7466674Y24750000D01*
X7339507Y24715925D01*
X7278500Y24680703D01*
X7278500Y25608000D01*
X7275626Y25608000D01*
X7064496Y25574560D01*
X6861213Y25508510D01*
X6861207Y25508507D01*
X6670749Y25411464D01*
X6497820Y25285823D01*
X6346677Y25134680D01*
X6221036Y24961751D01*
X6123993Y24771293D01*
X6123990Y24771287D01*
X6057940Y24568005D01*
X6047802Y24504000D01*
X7101797Y24504000D01*
X7066575Y24442993D01*
X7032500Y24315826D01*
X7032500Y24184174D01*
X7066575Y24057007D01*
X7101797Y23996000D01*
X6047802Y23996000D01*
X6057940Y23931996D01*
X6123990Y23728714D01*
X6123993Y23728708D01*
X6221036Y23538250D01*
X6346677Y23365321D01*
X6497820Y23214178D01*
X6606939Y23134898D01*
X6650293Y23078675D01*
X6656368Y23007939D01*
X6623236Y22945147D01*
X6581097Y22916554D01*
X6479664Y22874539D01*
X6479657Y22874535D01*
X6354218Y22778282D01*
X6257965Y22652843D01*
X6257963Y22652840D01*
X6197455Y22506761D01*
X6182000Y22389364D01*
X6182000Y21110641D01*
X6182001Y21110632D01*
X6193338Y21024522D01*
X6197456Y20993238D01*
X6257964Y20847159D01*
X6354218Y20721718D01*
X6479659Y20625464D01*
X6625738Y20564956D01*
X6743139Y20549500D01*
X8321860Y20549501D01*
X8439262Y20564956D01*
X8585341Y20625464D01*
X8710782Y20721718D01*
X8807036Y20847159D01*
X8867544Y20993238D01*
X8883000Y21110639D01*
X8883000Y21197300D01*
X8903002Y21265421D01*
X8956658Y21311914D01*
X9009000Y21323300D01*
X9736553Y21323300D01*
X9804674Y21303298D01*
X9851167Y21249642D01*
X9861654Y21212322D01*
X9865122Y21183436D01*
X9920638Y21042659D01*
X9920641Y21042655D01*
X10012077Y20922078D01*
X10132654Y20830642D01*
X10132658Y20830639D01*
X10273435Y20775123D01*
X10273434Y20775123D01*
X10301394Y20771766D01*
X10361898Y20764500D01*
X10361901Y20764500D01*
X10848099Y20764500D01*
X10848102Y20764500D01*
X10936564Y20775123D01*
X11077342Y20830639D01*
X11197922Y20922078D01*
X11289361Y21042658D01*
X11312785Y21102058D01*
X11356383Y21158090D01*
X11423354Y21181658D01*
X11492435Y21165277D01*
X11541693Y21114148D01*
X11547215Y21102057D01*
X11570638Y21042659D01*
X11570641Y21042655D01*
X11662077Y20922078D01*
X11782654Y20830642D01*
X11782658Y20830639D01*
X11923435Y20775123D01*
X11923434Y20775123D01*
X11951394Y20771766D01*
X12011898Y20764500D01*
X12011901Y20764500D01*
X12498099Y20764500D01*
X12498102Y20764500D01*
X12586564Y20775123D01*
X12727342Y20830639D01*
X12847922Y20922078D01*
X12939361Y21042658D01*
X12994877Y21183436D01*
X13005500Y21271898D01*
X13005500Y21908102D01*
X12995160Y21994211D01*
X12994877Y21996565D01*
X12969375Y22061233D01*
X12962992Y22131942D01*
X12995850Y22194877D01*
X12997439Y22196496D01*
X16203540Y25402595D01*
X16265852Y25436621D01*
X16292635Y25439500D01*
X16879264Y25439500D01*
X16879266Y25439500D01*
X16909699Y25442354D01*
X16977384Y25466039D01*
X17048289Y25469658D01*
X17109894Y25434369D01*
X17142641Y25371376D01*
X17145000Y25347109D01*
X17145000Y25273000D01*
X18278169Y25273000D01*
X18346290Y25252998D01*
X18392783Y25199342D01*
X18402887Y25129068D01*
X18394579Y25098786D01*
X18376377Y25054842D01*
X18360214Y25015821D01*
X18360212Y25015816D01*
X18335029Y24889215D01*
X18335029Y24889212D01*
X18335029Y24760130D01*
X18360212Y24633527D01*
X18409609Y24514270D01*
X18481324Y24406941D01*
X18481326Y24406939D01*
X18513314Y24374951D01*
X18547340Y24312639D01*
X18542275Y24241824D01*
X18513314Y24196761D01*
X13221855Y18905300D01*
X11993000Y17676445D01*
X11953278Y17636723D01*
X11913556Y17597002D01*
X11913552Y17596997D01*
X11857381Y17499705D01*
X11857379Y17499700D01*
X11835831Y17419280D01*
X11828300Y17391175D01*
X11828300Y13556556D01*
X11808298Y13488435D01*
X11778434Y13456159D01*
X11662077Y13367923D01*
X11570641Y13247346D01*
X11570640Y13247344D01*
X11547215Y13187943D01*
X11503616Y13131910D01*
X11436645Y13108343D01*
X11367565Y13124725D01*
X11318307Y13175854D01*
X11312785Y13187943D01*
X11289361Y13247342D01*
X11247382Y13302700D01*
X11197922Y13367923D01*
X11077345Y13459359D01*
X11077341Y13459362D01*
X10936564Y13514878D01*
X10936565Y13514878D01*
X10848105Y13525500D01*
X10848102Y13525500D01*
X10361898Y13525500D01*
X10361894Y13525500D01*
X10273435Y13514878D01*
X10132658Y13459362D01*
X10132654Y13459359D01*
X10012077Y13367923D01*
X9920639Y13247343D01*
X9917041Y13240944D01*
X9866218Y13191370D01*
X9807213Y13176700D01*
X9008999Y13176700D01*
X8940878Y13196702D01*
X8894385Y13250358D01*
X8882999Y13302700D01*
X8882999Y13389361D01*
X8882998Y13389369D01*
X8873784Y13459359D01*
X8867544Y13506762D01*
X8807036Y13652841D01*
X8710782Y13778282D01*
X8585341Y13874536D01*
X8483900Y13916554D01*
X8428622Y13961102D01*
X8406201Y14028465D01*
X8423759Y14097256D01*
X8458060Y14134898D01*
X8567179Y14214179D01*
X8567182Y14214181D01*
X8718322Y14365321D01*
X8843963Y14538250D01*
X8941006Y14728708D01*
X8941009Y14728714D01*
X9007059Y14931996D01*
X9017198Y14996000D01*
X7963203Y14996000D01*
X7998425Y15057007D01*
X8032500Y15184174D01*
X8032500Y15315826D01*
X7998425Y15442993D01*
X7963203Y15504000D01*
X9017197Y15504000D01*
X9007059Y15568005D01*
X8941009Y15771287D01*
X8941006Y15771293D01*
X8843963Y15961751D01*
X8718322Y16134680D01*
X8567179Y16285823D01*
X8394250Y16411464D01*
X8203792Y16508507D01*
X8203786Y16508510D01*
X8000503Y16574560D01*
X7789374Y16608000D01*
X7786500Y16608000D01*
X7786500Y15680703D01*
X7725493Y15715925D01*
X7598326Y15750000D01*
X7466674Y15750000D01*
X7339507Y15715925D01*
X7278500Y15680703D01*
X7278500Y16608000D01*
X7275626Y16608000D01*
X7064496Y16574560D01*
X6861213Y16508510D01*
X6861207Y16508507D01*
X6670749Y16411464D01*
X6497820Y16285823D01*
X6346677Y16134680D01*
X6221036Y15961751D01*
X6123993Y15771293D01*
X6123990Y15771287D01*
X6057940Y15568005D01*
X6047802Y15504000D01*
X7101797Y15504000D01*
X7066575Y15442993D01*
X7032500Y15315826D01*
X7032500Y15184174D01*
X7066575Y15057007D01*
X7101797Y14996000D01*
X6047802Y14996000D01*
X6057940Y14931996D01*
X6123990Y14728714D01*
X6123993Y14728708D01*
X6221036Y14538250D01*
X6346677Y14365321D01*
X6497820Y14214178D01*
X6606939Y14134898D01*
X6650293Y14078675D01*
X6656368Y14007939D01*
X6623236Y13945147D01*
X6581097Y13916554D01*
X6479664Y13874539D01*
X6479657Y13874535D01*
X6354218Y13778282D01*
X6257965Y13652843D01*
X6257963Y13652840D01*
X6197455Y13506761D01*
X6182000Y13389364D01*
X6182000Y12110641D01*
X6182001Y12110632D01*
X6197456Y11993240D01*
X6197456Y11993239D01*
X6246638Y11874501D01*
X6257964Y11847159D01*
X6354218Y11721718D01*
X6479659Y11625464D01*
X6625738Y11564956D01*
X6743139Y11549500D01*
X8321860Y11549501D01*
X8439262Y11564956D01*
X8585341Y11625464D01*
X8710782Y11721718D01*
X8807036Y11847159D01*
X8867544Y11993238D01*
X8883000Y12110639D01*
X8883000Y12197300D01*
X8903002Y12265421D01*
X8956658Y12311914D01*
X9009000Y12323300D01*
X9767591Y12323300D01*
X9835712Y12303298D01*
X9882205Y12249642D01*
X9884806Y12243524D01*
X9920638Y12152659D01*
X9920641Y12152655D01*
X10012077Y12032078D01*
X10132654Y11940642D01*
X10132658Y11940639D01*
X10273435Y11885123D01*
X10273434Y11885123D01*
X10301394Y11881766D01*
X10361898Y11874500D01*
X10361901Y11874500D01*
X10848099Y11874500D01*
X10848102Y11874500D01*
X10936564Y11885123D01*
X11077342Y11940639D01*
X11197922Y12032078D01*
X11289361Y12152658D01*
X11312785Y12212058D01*
X11356383Y12268090D01*
X11423354Y12291658D01*
X11492435Y12275277D01*
X11541693Y12224148D01*
X11547215Y12212057D01*
X11570638Y12152659D01*
X11570641Y12152655D01*
X11662077Y12032078D01*
X11782654Y11940642D01*
X11782658Y11940639D01*
X11923435Y11885123D01*
X11923434Y11885123D01*
X11951394Y11881766D01*
X12011898Y11874500D01*
X12011901Y11874500D01*
X12498099Y11874500D01*
X12498102Y11874500D01*
X12586564Y11885123D01*
X12727342Y11940639D01*
X12847922Y12032078D01*
X12939361Y12152658D01*
X12994877Y12293436D01*
X13005500Y12381898D01*
X13005500Y13018102D01*
X12994877Y13106564D01*
X12994175Y13108343D01*
X12939361Y13247342D01*
X12939358Y13247346D01*
X12847922Y13367923D01*
X12731566Y13456159D01*
X12689373Y13513258D01*
X12681700Y13556556D01*
X12681700Y17106066D01*
X12701702Y17174187D01*
X12718600Y17195156D01*
X16808770Y21285327D01*
X20492001Y21285327D01*
X20502168Y21185792D01*
X20555607Y21024522D01*
X20644795Y20879926D01*
X20644800Y20879920D01*
X20764919Y20759801D01*
X20764925Y20759796D01*
X20909520Y20670608D01*
X21070787Y20617170D01*
X21170327Y20607001D01*
X21183500Y20607002D01*
X21183500Y21336000D01*
X20492001Y21336000D01*
X20492001Y21285327D01*
X16808770Y21285327D01*
X19082987Y23559544D01*
X19664700Y23559544D01*
X19664700Y23559541D01*
X19664700Y23430459D01*
X19689883Y23303856D01*
X19739280Y23184599D01*
X19810995Y23077270D01*
X19902270Y22985995D01*
X20009599Y22914280D01*
X20128856Y22864883D01*
X20255459Y22839700D01*
X20255460Y22839700D01*
X20384540Y22839700D01*
X20384541Y22839700D01*
X20511144Y22864883D01*
X20624677Y22911910D01*
X20695263Y22919498D01*
X20758750Y22887719D01*
X20773289Y22871635D01*
X20797506Y22839700D01*
X20807079Y22827077D01*
X20934525Y22730431D01*
X20933330Y22728856D01*
X20975141Y22685996D01*
X20989372Y22616440D01*
X20963739Y22550232D01*
X20915114Y22514764D01*
X20916173Y22512495D01*
X20909525Y22509396D01*
X20764925Y22420205D01*
X20764919Y22420200D01*
X20644800Y22300081D01*
X20644795Y22300075D01*
X20555607Y22155480D01*
X20502169Y21994211D01*
X20502168Y21994207D01*
X20492000Y21894682D01*
X20492000Y21844000D01*
X21311500Y21844000D01*
X21379621Y21823998D01*
X21426114Y21770342D01*
X21437500Y21718000D01*
X21437500Y21590000D01*
X21565500Y21590000D01*
X21633621Y21569998D01*
X21680114Y21516342D01*
X21691500Y21464000D01*
X21691500Y20607001D01*
X21704673Y20607001D01*
X21804208Y20617169D01*
X21965478Y20670608D01*
X22110074Y20759796D01*
X22110080Y20759801D01*
X22230199Y20879920D01*
X22234755Y20885681D01*
X22236859Y20884017D01*
X22280336Y20923150D01*
X22350407Y20934579D01*
X22411536Y20909508D01*
X22506662Y20836516D01*
X22506669Y20836511D01*
X22645146Y20779152D01*
X22756439Y20764500D01*
X23268560Y20764501D01*
X23379854Y20779152D01*
X23518331Y20836511D01*
X23637244Y20927756D01*
X23728489Y21046669D01*
X23785848Y21185146D01*
X23800500Y21296439D01*
X23800499Y21883560D01*
X23785848Y21994854D01*
X23728489Y22133331D01*
X23637244Y22252244D01*
X23525995Y22337609D01*
X23523710Y22340738D01*
X23520188Y22342346D01*
X23502946Y22369174D01*
X23484129Y22394945D01*
X23483289Y22399761D01*
X23481804Y22402072D01*
X23476700Y22437570D01*
X23476700Y22638446D01*
X23496702Y22706567D01*
X23526563Y22738841D01*
X23642922Y22827078D01*
X23734361Y22947658D01*
X23789877Y23088436D01*
X23800500Y23176898D01*
X23800500Y23813102D01*
X23789877Y23901564D01*
X23789175Y23903343D01*
X23734361Y24042342D01*
X23734358Y24042346D01*
X23642922Y24162923D01*
X23522345Y24254359D01*
X23522341Y24254362D01*
X23381564Y24309878D01*
X23381565Y24309878D01*
X23293105Y24320500D01*
X23293102Y24320500D01*
X22806898Y24320500D01*
X22806894Y24320500D01*
X22718435Y24309878D01*
X22577658Y24254362D01*
X22577654Y24254359D01*
X22457077Y24162923D01*
X22365641Y24042346D01*
X22365640Y24042344D01*
X22342215Y23982943D01*
X22298616Y23926910D01*
X22231645Y23903343D01*
X22162565Y23919725D01*
X22113307Y23970854D01*
X22107785Y23982943D01*
X22099478Y24004008D01*
X22084361Y24042342D01*
X22062212Y24071550D01*
X21992922Y24162923D01*
X21872345Y24254359D01*
X21872341Y24254362D01*
X21731564Y24309878D01*
X21731565Y24309878D01*
X21643105Y24320500D01*
X21643102Y24320500D01*
X21156898Y24320500D01*
X21156894Y24320500D01*
X21068435Y24309878D01*
X20927658Y24254362D01*
X20927654Y24254359D01*
X20807078Y24162923D01*
X20773288Y24118365D01*
X20716189Y24076173D01*
X20645343Y24071550D01*
X20624674Y24078092D01*
X20511150Y24125115D01*
X20511144Y24125117D01*
X20384543Y24150300D01*
X20384541Y24150300D01*
X20255459Y24150300D01*
X20255456Y24150300D01*
X20128855Y24125117D01*
X20128850Y24125115D01*
X20009597Y24075719D01*
X19902274Y24004008D01*
X19902267Y24004003D01*
X19810997Y23912733D01*
X19810992Y23912726D01*
X19739281Y23805403D01*
X19689885Y23686150D01*
X19689883Y23686145D01*
X19664700Y23559544D01*
X19082987Y23559544D01*
X20968011Y25444568D01*
X21030321Y25478592D01*
X21098718Y25474401D01*
X21190301Y25442354D01*
X21220734Y25439500D01*
X21220736Y25439500D01*
X22604264Y25439500D01*
X22604266Y25439500D01*
X22634699Y25442354D01*
X22762882Y25487207D01*
X22821219Y25530261D01*
X22872150Y25567850D01*
X22952791Y25677115D01*
X22952793Y25677119D01*
X22997644Y25805296D01*
X22997646Y25805301D01*
X23000500Y25835734D01*
X23000500Y26144266D01*
X22997646Y26174699D01*
X22963113Y26273387D01*
X22959494Y26344288D01*
X22963110Y26356603D01*
X22997646Y26455301D01*
X23000500Y26485734D01*
X23000500Y26794266D01*
X22997646Y26824699D01*
X22963113Y26923387D01*
X22959494Y26994288D01*
X22963110Y27006603D01*
X22997646Y27105301D01*
X23000500Y27135734D01*
X23000500Y27263500D01*
X23020502Y27331621D01*
X23074158Y27378114D01*
X23126500Y27389500D01*
X23707472Y27389500D01*
X23707474Y27389500D01*
X23707475Y27389500D01*
X23847485Y27427016D01*
X23973015Y27499490D01*
X24071121Y27597597D01*
X24133431Y27631620D01*
X24160215Y27634500D01*
X24417713Y27634500D01*
X24417720Y27634500D01*
X24530236Y27649313D01*
X24670233Y27707302D01*
X24790451Y27799549D01*
X24882698Y27919767D01*
X24940687Y28059764D01*
X24955500Y28172280D01*
X24955500Y28697720D01*
X24940687Y28810236D01*
X24882698Y28950233D01*
X24830198Y29018651D01*
X24804599Y29084868D01*
X24818863Y29154417D01*
X24841067Y29184449D01*
X24958890Y29302272D01*
X25048847Y29448116D01*
X25102742Y29610759D01*
X25102744Y29610771D01*
X25112999Y29711148D01*
X25113000Y29711148D01*
X25113000Y29731000D01*
X23289999Y29731000D01*
X23285904Y29726905D01*
X23223592Y29692879D01*
X23196809Y29690000D01*
X22875875Y29690000D01*
X22807754Y29710002D01*
X22801054Y29714621D01*
X22762883Y29742793D01*
X22762876Y29742796D01*
X22634704Y29787645D01*
X22634700Y29787646D01*
X22604266Y29790500D01*
X21220734Y29790500D01*
X21220733Y29790500D01*
X21190299Y29787646D01*
X21190295Y29787645D01*
X21062118Y29742794D01*
X21062113Y29742792D01*
X21024622Y29715121D01*
X21003877Y29707545D01*
X20985299Y29695604D01*
X20962028Y29692259D01*
X20957935Y29690763D01*
X20949801Y29690500D01*
X20817547Y29690500D01*
X20749426Y29710502D01*
X20737909Y29718886D01*
X20635003Y29787645D01*
X20630401Y29790720D01*
X20511144Y29840117D01*
X20475732Y29847161D01*
X20384543Y29865300D01*
X20384541Y29865300D01*
X20255459Y29865300D01*
X20250045Y29864767D01*
X20234963Y29867628D01*
X20219768Y29865443D01*
X20200788Y29874111D01*
X20180293Y29877999D01*
X20169151Y29888560D01*
X20155188Y29894937D01*
X20143909Y29912487D01*
X20128766Y29926841D01*
X20124491Y29942702D01*
X20116804Y29954663D01*
X20111700Y29990161D01*
X20111700Y30090001D01*
X20674919Y30090001D01*
X20674919Y30090000D01*
X21712500Y30090000D01*
X21712500Y30598000D01*
X22112500Y30598000D01*
X22112500Y30090000D01*
X23015000Y30090000D01*
X23015000Y30113000D01*
X23035002Y30181121D01*
X23088658Y30227614D01*
X23141000Y30239000D01*
X23876000Y30239000D01*
X23876000Y30943000D01*
X23831147Y30943000D01*
X23730770Y30932745D01*
X23730758Y30932743D01*
X23568115Y30878848D01*
X23422271Y30788891D01*
X23422265Y30788886D01*
X23301114Y30667735D01*
X23301109Y30667729D01*
X23211153Y30521887D01*
X23194323Y30471097D01*
X23153908Y30412726D01*
X23088351Y30385472D01*
X23018466Y30397986D01*
X22985624Y30421637D01*
X22983631Y30423630D01*
X22856629Y30521083D01*
X22856621Y30521088D01*
X22708718Y30582351D01*
X22589849Y30598000D01*
X22112500Y30598000D01*
X21712500Y30598000D01*
X21235154Y30598000D01*
X21235145Y30597999D01*
X21116281Y30582350D01*
X21116280Y30582350D01*
X20968378Y30521088D01*
X20968370Y30521083D01*
X20841369Y30423631D01*
X20743917Y30296630D01*
X20743912Y30296622D01*
X20682649Y30148719D01*
X20674919Y30090001D01*
X20111700Y30090001D01*
X20111700Y30562775D01*
X20131702Y30630896D01*
X20148605Y30651870D01*
X20164470Y30667735D01*
X20194005Y30697270D01*
X20265720Y30804599D01*
X20315117Y30923856D01*
X20340300Y31050459D01*
X20340300Y31136877D01*
X20360302Y31204998D01*
X20413958Y31251491D01*
X20484232Y31261595D01*
X20536302Y31241642D01*
X20537269Y31240996D01*
X20537270Y31240995D01*
X20644599Y31169280D01*
X20763856Y31119883D01*
X20890459Y31094700D01*
X20890460Y31094700D01*
X21019540Y31094700D01*
X21019541Y31094700D01*
X21146144Y31119883D01*
X21265401Y31169280D01*
X21372730Y31240995D01*
X21464005Y31332270D01*
X21535720Y31439599D01*
X21585117Y31558856D01*
X21610300Y31685459D01*
X21610300Y31731700D01*
X21630302Y31799821D01*
X21683958Y31846314D01*
X21736300Y31857700D01*
X23826585Y31857700D01*
X23894706Y31837698D01*
X23915674Y31820801D01*
X24584528Y31151947D01*
X24618552Y31089637D01*
X24613488Y31018822D01*
X24570941Y30961986D01*
X24504421Y30937175D01*
X24482627Y30937506D01*
X24428845Y30943000D01*
X24384000Y30943000D01*
X24384000Y30239000D01*
X25113000Y30239000D01*
X25113000Y30258853D01*
X25107506Y30312626D01*
X25120480Y30382427D01*
X25169132Y30434133D01*
X25238015Y30451327D01*
X25305259Y30428551D01*
X25321948Y30414528D01*
X25447595Y30288881D01*
X25481621Y30226569D01*
X25484500Y30199786D01*
X25484500Y15916500D01*
X25464498Y15848379D01*
X25410842Y15801886D01*
X25358500Y15790500D01*
X24578953Y15790500D01*
X24438943Y15752984D01*
X24438938Y15752982D01*
X24313417Y15680513D01*
X24313407Y15680505D01*
X19060026Y10427125D01*
X18997714Y10393099D01*
X18926898Y10398164D01*
X18895422Y10415352D01*
X18837353Y10458821D01*
X18807331Y10481296D01*
X18807329Y10481297D01*
X18807326Y10481299D01*
X18672483Y10531591D01*
X18672486Y10531591D01*
X18612873Y10538000D01*
X18217135Y10538000D01*
X18217114Y10537998D01*
X18157519Y10531592D01*
X18157518Y10531592D01*
X18022673Y10481299D01*
X18022670Y10481297D01*
X17907453Y10395047D01*
X17821203Y10279830D01*
X17821201Y10279827D01*
X17775566Y10157469D01*
X17733020Y10100633D01*
X17666500Y10075821D01*
X17657510Y10075500D01*
X16476500Y10075500D01*
X16408379Y10095502D01*
X16361886Y10149158D01*
X16350500Y10201500D01*
X16350499Y11197865D01*
X16350499Y11197872D01*
X16344091Y11257483D01*
X16293796Y11392331D01*
X16207546Y11507546D01*
X16207543Y11507548D01*
X16207542Y11507550D01*
X16200987Y11512457D01*
X16158442Y11569294D01*
X16150500Y11613322D01*
X16150500Y17211207D01*
X16159283Y17241123D01*
X16165912Y17271592D01*
X16169726Y17276688D01*
X16170502Y17279328D01*
X16187405Y17300302D01*
X16194898Y17307795D01*
X16257210Y17341821D01*
X16283993Y17344700D01*
X16314540Y17344700D01*
X16314541Y17344700D01*
X16441144Y17369883D01*
X16560401Y17419280D01*
X16667730Y17490995D01*
X16759005Y17582270D01*
X16830720Y17689599D01*
X16880117Y17808856D01*
X16905300Y17935459D01*
X16905300Y18064541D01*
X16880117Y18191144D01*
X16830720Y18310401D01*
X16759005Y18417730D01*
X16667730Y18509005D01*
X16560401Y18580720D01*
X16441144Y18630117D01*
X16314543Y18655300D01*
X16314541Y18655300D01*
X16185459Y18655300D01*
X16185456Y18655300D01*
X16058855Y18630117D01*
X16058846Y18630114D01*
X15939221Y18580564D01*
X15868632Y18572975D01*
X15805145Y18604755D01*
X15786241Y18626969D01*
X15759005Y18667730D01*
X15667730Y18759005D01*
X15560401Y18830720D01*
X15441144Y18880117D01*
X15314543Y18905300D01*
X15314541Y18905300D01*
X15185459Y18905300D01*
X15185456Y18905300D01*
X15058855Y18880117D01*
X15058850Y18880115D01*
X14939597Y18830719D01*
X14832274Y18759008D01*
X14832267Y18759003D01*
X14740997Y18667733D01*
X14740992Y18667726D01*
X14669281Y18560403D01*
X14619885Y18441150D01*
X14619883Y18441145D01*
X14594700Y18314544D01*
X14594700Y18314541D01*
X14594700Y18185459D01*
X14619883Y18058856D01*
X14669280Y17939599D01*
X14740995Y17832270D01*
X14740997Y17832268D01*
X14752595Y17820670D01*
X14786621Y17758358D01*
X14789500Y17731575D01*
X14789500Y12514500D01*
X14769498Y12446379D01*
X14715842Y12399886D01*
X14663500Y12388500D01*
X14291691Y12388500D01*
X14230291Y12372048D01*
X14177116Y12357800D01*
X14177109Y12357797D01*
X14158647Y12347137D01*
X14074389Y12298492D01*
X14074379Y12298484D01*
X13609516Y11833621D01*
X13609508Y11833611D01*
X13550200Y11730888D01*
X13550200Y11730884D01*
X13542026Y11700381D01*
X13505074Y11639759D01*
X13464354Y11614939D01*
X13407669Y11593797D01*
X13407669Y11593796D01*
X13292453Y11507547D01*
X13206203Y11392330D01*
X13206201Y11392327D01*
X13155909Y11257485D01*
X13149500Y11197879D01*
X13149500Y10077136D01*
X13149502Y10077115D01*
X13155908Y10017520D01*
X13155908Y10017519D01*
X13206201Y9882674D01*
X13206203Y9882671D01*
X13292453Y9767454D01*
X13350061Y9724329D01*
X13407669Y9681204D01*
X13407671Y9681204D01*
X13407673Y9681202D01*
X13468030Y9658691D01*
X13542517Y9630909D01*
X13594895Y9625278D01*
X13660486Y9598108D01*
X13700976Y9539790D01*
X13703510Y9468839D01*
X13667282Y9407781D01*
X13603795Y9376002D01*
X13594892Y9374722D01*
X13542518Y9369092D01*
X13407673Y9318799D01*
X13407670Y9318797D01*
X13292453Y9232547D01*
X13206203Y9117330D01*
X13206201Y9117327D01*
X13155909Y8982485D01*
X13149500Y8922879D01*
X13149500Y8803681D01*
X13129498Y8735560D01*
X13106051Y8710073D01*
X13106339Y8709785D01*
X11457654Y7061099D01*
X9988000Y5591445D01*
X9948278Y5551723D01*
X9908556Y5512002D01*
X9908552Y5511997D01*
X9852381Y5414705D01*
X9852379Y5414700D01*
X9823300Y5306176D01*
X9823300Y4056176D01*
X9823300Y3943824D01*
X9825898Y3934129D01*
X9852378Y3835303D01*
X9852381Y3835296D01*
X9908552Y3738004D01*
X9908560Y3737994D01*
X9992593Y3653961D01*
X9992597Y3653958D01*
X9992600Y3653955D01*
X10082711Y3601930D01*
X10131704Y3550548D01*
X10145141Y3480835D01*
X10118754Y3414924D01*
X10075051Y3379614D01*
X10043514Y3364197D01*
X9960803Y3281486D01*
X9960801Y3281483D01*
X9909427Y3176395D01*
X9899500Y3108262D01*
X9899500Y1741739D01*
X9909427Y1673606D01*
X9960801Y1568518D01*
X9960803Y1568515D01*
X10043514Y1485804D01*
X10043517Y1485802D01*
X10148607Y1434427D01*
X10216740Y1424500D01*
X10216745Y1424500D01*
X11933255Y1424500D01*
X11933260Y1424500D01*
X11936821Y1425019D01*
X12007114Y1415053D01*
X12060861Y1368665D01*
X12068189Y1355684D01*
X12068194Y1355674D01*
X12110803Y1268515D01*
X12193514Y1185804D01*
X12193517Y1185802D01*
X12298607Y1134427D01*
X12366740Y1124500D01*
X12366745Y1124500D01*
X14233255Y1124500D01*
X14233260Y1124500D01*
X14301393Y1134427D01*
X14301394Y1134428D01*
X14301397Y1134428D01*
X14310741Y1137315D01*
X14311594Y1134554D01*
X14348080Y1143000D01*
X15351920Y1143000D01*
X15388405Y1134554D01*
X15389259Y1137315D01*
X15398602Y1134428D01*
X15398606Y1134428D01*
X15398607Y1134427D01*
X15466740Y1124500D01*
X15466745Y1124500D01*
X16533255Y1124500D01*
X16533260Y1124500D01*
X16601393Y1134427D01*
X16706483Y1185802D01*
X16789198Y1268517D01*
X16831807Y1355677D01*
X16879692Y1408089D01*
X16948315Y1426293D01*
X16963163Y1425022D01*
X16966740Y1424500D01*
X16966745Y1424500D01*
X18683255Y1424500D01*
X18683260Y1424500D01*
X18751393Y1434427D01*
X18856483Y1485802D01*
X18939198Y1568517D01*
X18990573Y1673607D01*
X19000500Y1741740D01*
X19000500Y3108260D01*
X18990573Y3176393D01*
X18939198Y3281483D01*
X18939196Y3281486D01*
X18856485Y3364197D01*
X18856482Y3364199D01*
X18751394Y3415573D01*
X18683261Y3425500D01*
X18683260Y3425500D01*
X18033000Y3425500D01*
X17964879Y3445502D01*
X17918386Y3499158D01*
X17907000Y3551500D01*
X17907000Y3934129D01*
X17927002Y4002250D01*
X17933215Y4009959D01*
X17933131Y4010019D01*
X17939195Y4018515D01*
X17939198Y4018517D01*
X17990573Y4123607D01*
X18000500Y4191740D01*
X18000500Y5808260D01*
X17990573Y5876393D01*
X17939198Y5981483D01*
X17939196Y5981486D01*
X17936277Y5984405D01*
X17933561Y5989379D01*
X17933131Y5989981D01*
X17933203Y5990033D01*
X17902251Y6046717D01*
X17907316Y6117532D01*
X17949863Y6174368D01*
X18016383Y6199179D01*
X18025372Y6199500D01*
X18937474Y6199500D01*
X18937475Y6199500D01*
X19077485Y6237016D01*
X19077486Y6237017D01*
X19080402Y6237798D01*
X19126483Y6241370D01*
X19167127Y6237000D01*
X19562872Y6237001D01*
X19622483Y6243409D01*
X19757331Y6293704D01*
X19872546Y6379954D01*
X19958796Y6495169D01*
X20009091Y6630017D01*
X20015500Y6689627D01*
X20015499Y7810372D01*
X20009091Y7869983D01*
X19987800Y7927065D01*
X19958798Y8004827D01*
X19958796Y8004830D01*
X19958796Y8004831D01*
X19872546Y8120046D01*
X19757331Y8206296D01*
X19713734Y8222557D01*
X19713728Y8222560D01*
X19622484Y8256591D01*
X19622486Y8256591D01*
X19562873Y8263000D01*
X19167135Y8263000D01*
X19167114Y8262998D01*
X19107519Y8256592D01*
X19107518Y8256592D01*
X18972673Y8206299D01*
X18972670Y8206297D01*
X18857453Y8120047D01*
X18771203Y8004830D01*
X18771201Y8004827D01*
X18720909Y7869985D01*
X18714500Y7810379D01*
X18714500Y7430217D01*
X18705718Y7400310D01*
X18699096Y7369847D01*
X18695274Y7364742D01*
X18694498Y7362096D01*
X18677607Y7341134D01*
X18673891Y7337417D01*
X18611584Y7303383D01*
X18584784Y7300500D01*
X16393850Y7300500D01*
X16325729Y7320502D01*
X16323849Y7321735D01*
X16310405Y7330718D01*
X16310398Y7330722D01*
X16289324Y7339451D01*
X16234044Y7384000D01*
X16211624Y7451364D01*
X16229183Y7520155D01*
X16236670Y7531360D01*
X16293796Y7607669D01*
X16344091Y7742517D01*
X16350500Y7802127D01*
X16350499Y8848501D01*
X16370501Y8916621D01*
X16424157Y8963114D01*
X16476499Y8974500D01*
X17657510Y8974500D01*
X17725631Y8954498D01*
X17772124Y8900842D01*
X17775566Y8892531D01*
X17821201Y8770174D01*
X17821203Y8770171D01*
X17907453Y8654954D01*
X17965061Y8611829D01*
X18022669Y8568704D01*
X18022671Y8568704D01*
X18022673Y8568702D01*
X18083030Y8546191D01*
X18157514Y8518410D01*
X18157517Y8518409D01*
X18217127Y8512000D01*
X18612872Y8512001D01*
X18672483Y8518409D01*
X18807331Y8568704D01*
X18922546Y8654954D01*
X19008796Y8770169D01*
X19059091Y8905017D01*
X19059091Y8905025D01*
X19060903Y8912686D01*
X19062285Y8912360D01*
X19086198Y8970108D01*
X19117978Y8998180D01*
X19133767Y9007958D01*
X19148913Y9012016D01*
X19274443Y9084490D01*
X19302239Y9112287D01*
X19314663Y9119980D01*
X19335364Y9125685D01*
X19354214Y9135977D01*
X19368908Y9134927D01*
X19383108Y9138839D01*
X19403606Y9132446D01*
X19425030Y9130914D01*
X19436823Y9122086D01*
X19450885Y9117700D01*
X19464673Y9101239D01*
X19481867Y9088368D01*
X19487015Y9074565D01*
X19496473Y9063274D01*
X19499173Y9041972D01*
X19506679Y9021848D01*
X19507000Y9012859D01*
X19507000Y8946045D01*
X19509934Y8908750D01*
X19556318Y8749100D01*
X19640948Y8605999D01*
X19640949Y8605997D01*
X19758496Y8488450D01*
X19758500Y8488447D01*
X19828837Y8446851D01*
X19913189Y8400452D01*
X20061000Y8357509D01*
X20569000Y8357509D01*
X20728399Y8403819D01*
X20871502Y8488449D01*
X20989050Y8605997D01*
X20989051Y8605999D01*
X21073681Y8749099D01*
X21120065Y8908751D01*
X21123000Y8946044D01*
X21123000Y9271000D01*
X20569000Y9271000D01*
X20569000Y8357509D01*
X20061000Y8357509D01*
X20061000Y9399000D01*
X20081002Y9467121D01*
X20134658Y9513614D01*
X20187000Y9525000D01*
X20315000Y9525000D01*
X20315000Y9653000D01*
X20335002Y9721121D01*
X20388658Y9767614D01*
X20441000Y9779000D01*
X21122999Y9779000D01*
X21122999Y10103957D01*
X21120065Y10141251D01*
X21073681Y10300901D01*
X20989051Y10444002D01*
X20989050Y10444004D01*
X20900598Y10532456D01*
X20866572Y10594768D01*
X20871637Y10665583D01*
X20900596Y10710645D01*
X24842547Y14652596D01*
X24904859Y14686621D01*
X24931642Y14689500D01*
X26107473Y14689500D01*
X26107475Y14689500D01*
X26247485Y14727016D01*
X26311001Y14763688D01*
X26379995Y14780425D01*
X26447087Y14757205D01*
X26490974Y14701398D01*
X26500000Y14654568D01*
X26500000Y626000D01*
X26479998Y557879D01*
X26426342Y511386D01*
X26374000Y500000D01*
X626000Y500000D01*
X557879Y520002D01*
X511386Y573658D01*
X500000Y626000D01*
X500000Y5124568D01*
X3099500Y5124568D01*
X3099500Y4875433D01*
X3132016Y4628442D01*
X3132018Y4628435D01*
X3196498Y4387793D01*
X3291836Y4157627D01*
X3291837Y4157626D01*
X3291842Y4157615D01*
X3416398Y3941877D01*
X3416400Y3941874D01*
X3416401Y3941873D01*
X3568062Y3744224D01*
X3568066Y3744220D01*
X3568071Y3744214D01*
X3744213Y3568072D01*
X3744218Y3568068D01*
X3744224Y3568062D01*
X3863690Y3476393D01*
X3941876Y3416399D01*
X4157614Y3291843D01*
X4157618Y3291842D01*
X4157627Y3291836D01*
X4387793Y3196498D01*
X4628435Y3132018D01*
X4628439Y3132018D01*
X4628441Y3132017D01*
X4692099Y3123637D01*
X4875435Y3099500D01*
X4875442Y3099500D01*
X5124558Y3099500D01*
X5124565Y3099500D01*
X5347790Y3128889D01*
X5371558Y3132017D01*
X5371558Y3132018D01*
X5371565Y3132018D01*
X5612207Y3196498D01*
X5842373Y3291836D01*
X6058127Y3416401D01*
X6255776Y3568062D01*
X6431938Y3744224D01*
X6583599Y3941873D01*
X6708164Y4157627D01*
X6803502Y4387793D01*
X6867982Y4628435D01*
X6900500Y4875435D01*
X6900500Y5124565D01*
X6867982Y5371565D01*
X6803502Y5612207D01*
X6708164Y5842373D01*
X6708158Y5842382D01*
X6708157Y5842386D01*
X6583601Y6058124D01*
X6583599Y6058127D01*
X6431938Y6255776D01*
X6431932Y6255782D01*
X6431928Y6255787D01*
X6255786Y6431929D01*
X6255780Y6431934D01*
X6255776Y6431938D01*
X6058127Y6583599D01*
X6058126Y6583600D01*
X6058123Y6583602D01*
X5842385Y6708158D01*
X5842377Y6708162D01*
X5842373Y6708164D01*
X5612207Y6803502D01*
X5371565Y6867982D01*
X5371558Y6867984D01*
X5124567Y6900500D01*
X5124565Y6900500D01*
X4875435Y6900500D01*
X4875432Y6900500D01*
X4628441Y6867984D01*
X4387797Y6803503D01*
X4387793Y6803502D01*
X4157625Y6708163D01*
X4157614Y6708158D01*
X3941876Y6583602D01*
X3744224Y6431938D01*
X3744213Y6431929D01*
X3568071Y6255787D01*
X3568062Y6255776D01*
X3416398Y6058124D01*
X3291842Y5842386D01*
X3291837Y5842375D01*
X3196498Y5612207D01*
X3196497Y5612203D01*
X3132016Y5371559D01*
X3099500Y5124568D01*
X500000Y5124568D01*
X500000Y55374000D01*
X520002Y55442121D01*
X573658Y55488614D01*
X626000Y55500000D01*
X26374000Y55500000D01*
X26442121Y55479998D01*
G37*
G04 #@! TD.AperFunction*
M02*
